<svg width="15" height="13" viewBox="0 0 15 13" fill="none" xmlns="http://www.w3.org/2000/svg">
<path d="M1.5 12.2207C1.0875 12.2207 0.7345 12.074 0.441 11.7805C0.147 11.4865 0 11.1332 0 10.7207V1.7207C0 1.3082 0.147 0.955203 0.441 0.661703C0.7345 0.367703 1.0875 0.220703 1.5 0.220703H13.5C13.9125 0.220703 14.2657 0.367703 14.5597 0.661703C14.8533 0.955203 15 1.3082 15 1.7207V10.7207C15 11.1332 14.8533 11.4865 14.5597 11.7805C14.2657 12.074 13.9125 12.2207 13.5 12.2207H1.5ZM7.5 6.9707L13.5 3.2207V1.7207L7.5 5.4707L1.5 1.7207V3.2207L7.5 6.9707Z" fill="#FA207A"/>
</svg>
