<svg width="16" height="16" viewBox="0 0 16 16" fill="none" xmlns="http://www.w3.org/2000/svg">
<path d="M15.4918 4.8296C15.4559 4.01607 15.3243 3.45677 15.1359 2.97213C14.9415 2.4577 14.6424 1.99713 14.2505 1.61426C13.8676 1.22543 13.404 0.92329 12.8956 0.731912C12.4081 0.543455 11.8517 0.411897 11.0382 0.376028C10.2186 0.337121 9.9584 0.328125 7.87965 0.328125C5.80089 0.328125 5.5407 0.337121 4.72413 0.37299C3.9106 0.408859 3.3513 0.540534 2.86678 0.728874C2.35223 0.92329 1.89166 1.22239 1.50879 1.61426C1.11996 1.99713 0.817938 2.46074 0.626443 2.96921C0.437986 3.45677 0.306428 4.01303 0.270559 4.82656C0.231653 5.64617 0.222656 5.90636 0.222656 7.98512C0.222656 10.0639 0.231653 10.3241 0.267521 11.1406C0.30339 11.9542 0.435065 12.5135 0.623522 12.9981C0.817938 13.5125 1.11996 13.9731 1.50879 14.356C1.89166 14.7448 2.35527 15.0469 2.86374 15.2383C3.3513 15.4268 3.90756 15.5583 4.72121 15.5942C5.53766 15.6302 5.79797 15.6391 7.87673 15.6391C9.95548 15.6391 10.2157 15.6302 11.0322 15.5942C11.8458 15.5583 12.4051 15.4268 12.8896 15.2383C13.9186 14.8405 14.7321 14.027 15.1299 12.9981C15.3183 12.5105 15.4499 11.9542 15.4858 11.1406C15.5217 10.3241 15.5307 10.0639 15.5307 7.98512C15.5307 5.90636 15.5276 5.64617 15.4918 4.8296ZM14.113 11.0808C14.08 11.8286 13.9544 12.2324 13.8498 12.5015C13.5925 13.1686 13.0631 13.698 12.3961 13.9552C12.1269 14.0599 11.7202 14.1855 10.9753 14.2183C10.1678 14.2543 9.92557 14.2632 7.88269 14.2632C5.8398 14.2632 5.59456 14.2543 4.78991 14.2183C4.04216 14.1855 3.63837 14.0599 3.36918 13.9552C3.03725 13.8325 2.73511 13.6381 2.48987 13.3839C2.23563 13.1356 2.04122 12.8365 1.91854 12.5046C1.81385 12.2354 1.68825 11.8286 1.65542 11.0839C1.61944 10.2763 1.61056 10.034 1.61056 7.99108C1.61056 5.94819 1.61944 5.70295 1.65542 4.89842C1.68825 4.15066 1.81385 3.74688 1.91854 3.47768C2.04122 3.14564 2.23563 2.84361 2.4929 2.59826C2.74107 2.34402 3.04017 2.1496 3.37222 2.02704C3.64141 1.92236 4.04823 1.79676 4.79295 1.76381C5.60052 1.72794 5.84284 1.71895 7.88561 1.71895C9.93153 1.71895 10.1737 1.72794 10.9784 1.76381C11.7261 1.79676 12.1299 1.92236 12.3991 2.02704C12.731 2.1496 13.0332 2.34402 13.2784 2.59826C13.5327 2.84653 13.7271 3.14564 13.8498 3.47768C13.9544 3.74688 14.08 4.15358 14.113 4.89842C14.1489 5.70599 14.1579 5.94819 14.1579 7.99108C14.1579 10.034 14.1489 10.2732 14.113 11.0808Z" fill="white"/>
<path d="M7.87849 4.05225C5.70709 4.05225 3.94531 5.81391 3.94531 7.98543C3.94531 10.1569 5.70709 11.9186 7.87849 11.9186C10.05 11.9186 11.8117 10.1569 11.8117 7.98543C11.8117 5.81391 10.05 4.05225 7.87849 4.05225ZM7.87849 10.5368C6.4698 10.5368 5.32714 9.39424 5.32714 7.98543C5.32714 6.57661 6.4698 5.43407 7.87849 5.43407C9.28731 5.43407 10.4299 6.57661 10.4299 7.98543C10.4299 9.39424 9.28731 10.5368 7.87849 10.5368Z" fill="white"/>
<path d="M12.887 3.89607C12.887 4.40304 12.4759 4.81411 11.9688 4.81411C11.4618 4.81411 11.0508 4.40304 11.0508 3.89607C11.0508 3.38898 11.4618 2.97803 11.9688 2.97803C12.4759 2.97803 12.887 3.38898 12.887 3.89607Z" fill="white"/>
</svg>
