<svg width="15" height="14" viewBox="0 0 15 14" fill="none" xmlns="http://www.w3.org/2000/svg">
<path d="M13.4625 13.8276C13.6875 13.8276 13.875 13.7526 14.025 13.6026C14.175 13.4526 14.25 13.2651 14.25 13.0401V10.0026C14.25 9.82764 14.1938 9.67439 14.0813 9.54289C13.9688 9.41189 13.825 9.32764 13.65 9.29014L11.0625 8.76514C10.8875 8.74014 10.7093 8.75564 10.5278 8.81164C10.3468 8.86814 10.2 8.95264 10.0875 9.06514L8.325 10.8276C7.375 10.2526 6.50625 9.57139 5.71875 8.78389C4.93125 7.99639 4.275 7.15264 3.75 6.25264L5.55 4.41514C5.6625 4.30264 5.7345 4.17439 5.766 4.03039C5.797 3.88689 5.8 3.72764 5.775 3.55264L5.2875 0.927637C5.2625 0.752637 5.18125 0.608887 5.04375 0.496387C4.90625 0.383887 4.75 0.327637 4.575 0.327637H1.5375C1.3125 0.327637 1.125 0.402637 0.974999 0.552637C0.825 0.702637 0.75 0.890137 0.75 1.11514C0.75 2.72764 1.1095 4.29939 1.8285 5.83039C2.547 7.36189 3.497 8.71814 4.6785 9.89914C5.8595 11.0806 7.2155 12.0306 8.7465 12.7491C10.278 13.4681 11.85 13.8276 13.4625 13.8276Z" fill="#FA207A"/>
</svg>
