<svg width="18" height="16" viewBox="0 0 18 16" fill="none" xmlns="http://www.w3.org/2000/svg">
<path d="M17.2975 2.73C17.2278 2.56207 17.1098 2.4186 16.9585 2.31775C16.8073 2.2169 16.6295 2.1632 16.4476 2.16345H14.2886C13.8247 1.43851 13.1384 0.883425 12.3325 0.581367C11.5266 0.27931 10.6445 0.24655 9.81841 0.487998C8.99231 0.729445 8.26671 1.2321 7.75032 1.92063C7.23394 2.60916 6.95458 3.44649 6.95412 4.30715V4.3684C4.09841 3.48795 1.80925 1.22941 1.78628 1.20644C1.66743 1.08766 1.51829 1.00375 1.35507 0.963831C1.19186 0.923914 1.02082 0.929521 0.860571 0.980044C0.70032 1.03057 0.556994 1.12407 0.446185 1.25038C0.335376 1.37669 0.261328 1.53097 0.232097 1.69643C-0.456949 5.49384 0.691461 8.05097 1.77097 9.52093C2.24878 10.1713 2.81579 10.7512 3.4553 11.2435C2.35283 12.346 0.82927 12.9355 0.813958 12.9432C0.684035 12.9899 0.56668 13.0661 0.471057 13.1657C0.375434 13.2653 0.304132 13.3857 0.262721 13.5174C0.22076 13.6498 0.208609 13.7899 0.22714 13.9275C0.245671 14.0652 0.294424 14.197 0.369906 14.3136C0.515371 14.5357 1.39582 15.6381 4.19794 15.6381C9.71796 15.6381 14.3422 11.4196 14.8628 5.96086L17.0984 3.73294C17.2255 3.60322 17.312 3.43926 17.3474 3.26113C17.3827 3.083 17.3654 2.89843 17.2975 2.73ZM13.3316 4.90432C13.1694 5.05873 13.0733 5.27005 13.0637 5.49384C12.7651 10.1487 8.86814 13.8007 4.19794 13.8007C3.8779 13.8027 3.55811 13.7822 3.24093 13.7394C4.03716 13.2265 4.94058 12.5068 5.57603 11.5574C5.64836 11.4482 5.69667 11.3248 5.71779 11.1954C5.7389 11.0661 5.73234 10.9338 5.69853 10.8071C5.66576 10.6818 5.60641 10.565 5.52451 10.4646C5.44261 10.3642 5.34007 10.2826 5.22385 10.2253C5.07073 10.1411 1.73269 8.37252 1.86284 3.68701C3.17968 4.68995 5.30807 6.03742 7.71973 6.43553C7.85126 6.45777 7.98606 6.45109 8.11475 6.41597C8.24345 6.38084 8.36295 6.31811 8.46495 6.23214C8.56695 6.14617 8.649 6.03902 8.70541 5.91813C8.76182 5.79724 8.79122 5.66552 8.79158 5.53212V4.30715C8.79764 3.73517 9.02963 3.1888 9.43696 2.78721C9.84429 2.38562 10.3939 2.1614 10.9659 2.16345C11.3783 2.1688 11.7804 2.293 12.1239 2.52113C12.4675 2.74927 12.738 3.07167 12.9029 3.44967C12.9736 3.61412 13.0912 3.75411 13.2409 3.85214C13.3907 3.95018 13.566 4.00192 13.7451 4.00091H14.2274L13.3316 4.90432Z" fill="white"/>
</svg>
