<?xml version="1.0" encoding="utf-8"?><svg viewBox="0 0 47 40" xmlns="http://www.w3.org/2000/svg" xmlns:xlink="http://www.w3.org/1999/xlink"><style>:root>svg{display:none}:root>svg:target{display:block}</style><svg fill="none" viewBox="0 0 15 13" id="envelop-pink" xmlns="http://www.w3.org/2000/svg"><path d="M1.5 12.22c-.413 0-.765-.146-1.059-.44A1.445 1.445 0 0 1 0 10.72v-9C0 1.309.147.956.441.663A1.443 1.443 0 0 1 1.5.22h12c.412 0 .766.147 1.06.44.293.294.44.647.44 1.06v9c0 .412-.147.765-.44 1.06-.294.293-.648.44-1.06.44h-12Zm6-5.25 6-3.75v-1.5l-6 3.75-6-3.75v1.5l6 3.75Z" fill="#FA207A"/></svg><svg fill="none" viewBox="0 0 10 15" id="facebook" xmlns="http://www.w3.org/2000/svg"><path d="M6.33 14.773V8.194h2.632l.391-2.575H6.33v-1.64c0-.744.246-1.253 1.511-1.253h1.604V.43C8.664.36 7.879.326 7.094.328 4.769.328 3.17 1.526 3.17 3.724v1.89H.555V8.19h2.62v6.583H6.33Z" fill="#fff"/></svg><svg fill="none" viewBox="0 0 16 16" id="instagram" xmlns="http://www.w3.org/2000/svg"><path d="M15.492 4.83c-.036-.814-.168-1.373-.356-1.858a3.736 3.736 0 0 0-.885-1.358 3.769 3.769 0 0 0-1.355-.882c-.488-.189-1.044-.32-1.858-.356-.82-.039-1.08-.048-3.158-.048-2.08 0-2.34.01-3.156.045-.813.036-1.373.168-1.857.356a3.736 3.736 0 0 0-1.358.885A3.77 3.77 0 0 0 .626 2.97c-.188.488-.32 1.044-.355 1.858-.04.82-.048 1.08-.048 3.158 0 2.079.009 2.34.045 3.156.035.813.167 1.373.356 1.857.194.514.496.975.885 1.358.383.389.846.69 1.355.882.487.189 1.044.32 1.857.356.817.036 1.077.045 3.156.045 2.078 0 2.339-.009 3.155-.045.814-.036 1.373-.167 1.858-.356a3.916 3.916 0 0 0 2.24-2.24c.188-.487.32-1.044.356-1.857.036-.817.045-1.077.045-3.156s-.003-2.339-.04-3.155Zm-1.379 6.25c-.033.749-.159 1.152-.263 1.421a2.54 2.54 0 0 1-1.454 1.454c-.27.105-.676.23-1.42.263-.808.036-1.05.045-3.093.045s-2.288-.009-3.093-.045c-.748-.033-1.152-.158-1.42-.263a2.357 2.357 0 0 1-.88-.571 2.38 2.38 0 0 1-.571-.88c-.105-.269-.23-.675-.264-1.42-.036-.808-.044-1.05-.044-3.093s.008-2.288.044-3.093c.033-.747.159-1.151.264-1.42.122-.332.317-.634.574-.88.248-.254.547-.448.88-.571.268-.105.675-.23 1.42-.263.808-.036 1.05-.045 3.093-.045 2.046 0 2.288.009 3.092.045.748.033 1.152.158 1.421.263.332.123.634.317.88.571.254.249.448.548.57.88.105.269.231.676.264 1.42.036.808.045 1.05.045 3.093s-.01 2.282-.045 3.09Z" fill="#fff"/><path d="M7.878 4.052a3.934 3.934 0 0 0 0 7.867 3.934 3.934 0 0 0 0-7.867Zm0 6.485a2.552 2.552 0 1 1 .001-5.104 2.552 2.552 0 0 1 0 5.104ZM12.887 3.896a.918.918 0 1 1-1.836 0 .918.918 0 0 1 1.836 0Z" fill="#fff"/></svg><svg fill="none" viewBox="0 0 15 14" id="phone-pink" xmlns="http://www.w3.org/2000/svg"><path d="M13.463 13.828a.763.763 0 0 0 .562-.225.763.763 0 0 0 .225-.563v-3.037a.685.685 0 0 0-.169-.46.763.763 0 0 0-.431-.253l-2.588-.525a1.213 1.213 0 0 0-.534.047 1.054 1.054 0 0 0-.44.253l-1.763 1.763a13.72 13.72 0 0 1-2.606-2.044A12.455 12.455 0 0 1 3.75 6.253l1.8-1.838a.77.77 0 0 0 .216-.385c.031-.143.034-.302.009-.477L5.287.928a.66.66 0 0 0-.243-.432.72.72 0 0 0-.469-.168H1.537a.763.763 0 0 0-.562.225.763.763 0 0 0-.225.562c0 1.613.36 3.184 1.079 4.715a14.283 14.283 0 0 0 2.85 4.07 14.287 14.287 0 0 0 4.067 2.85c1.532.718 3.104 1.078 4.716 1.078Z" fill="#FA207A"/></svg><svg fill="none" viewBox="0 0 47 40" id="quote" xmlns="http://www.w3.org/2000/svg"><path d="M12.914 22.857c2.402 0 4.304.802 5.706 2.406 1.501 1.504 2.252 3.509 2.252 6.015 0 2.707-.9 4.862-2.703 6.466C16.468 39.248 14.115 40 11.112 40c-3.504 0-6.257-1.353-8.259-4.06C.951 33.233 0 29.373 0 24.36c0-4.51 1.001-8.67 3.003-12.48C5.005 7.97 8.01 4.06 12.013.15c.1-.1.25-.15.45-.15.3 0 .55.15.751.451.2.3.2.551 0 .752C8.31 6.216 5.856 12.13 5.856 18.947c0 2.807.5 4.863 1.502 6.166.9-1.504 2.753-2.256 5.556-2.256Zm26.128 0c2.402 0 4.304.802 5.706 2.406C46.249 26.767 47 28.772 47 31.278c0 2.707-.901 4.862-2.703 6.466C42.595 39.248 40.243 40 37.24 40c-3.504 0-6.257-1.353-8.26-4.06-1.901-2.707-2.852-6.567-2.852-11.58 0-4.51 1-8.67 3.003-12.48 2.002-3.91 5.005-7.82 9.01-11.73.1-.1.25-.15.45-.15.3 0 .55.15.75.451.201.3.201.551 0 .752-4.904 5.013-7.357 10.927-7.357 17.744 0 2.807.5 4.863 1.502 6.166.9-1.504 2.753-2.256 5.556-2.256Z" fill="#fff"/></svg><svg fill="none" viewBox="0 0 14 9" id="select-arrow" xmlns="http://www.w3.org/2000/svg"><path d="m7.576 8.488 5.433-5.922a1.054 1.054 0 0 0 0-1.455c-.388-.415-.97-.415-1.358 0L6.8 6.202l-4.85-5.09C1.56.695.98.695.59 1.111a.976.976 0 0 0-.291.727c0 .311.097.52.291.727l5.433 5.922c.485.416 1.067.416 1.552 0-.097 0-.097 0 0 0Z" fill="#AAA"/></svg><svg fill="none" viewBox="0 0 18 16" id="twitter" xmlns="http://www.w3.org/2000/svg"><path d="M17.297 2.73a.919.919 0 0 0-.85-.567H14.29a3.981 3.981 0 0 0-7.335 2.144v.061C4.098 3.488 1.81 1.23 1.786 1.206a.919.919 0 0 0-1.554.49c-.689 3.798.46 6.355 1.539 7.825a8.598 8.598 0 0 0 1.684 1.722C2.353 12.346.83 12.935.814 12.943a.895.895 0 0 0-.551.574.942.942 0 0 0 .107.797c.145.222 1.026 1.324 3.828 1.324 5.52 0 10.144-4.218 10.665-9.677l2.235-2.228a.934.934 0 0 0 .2-1.003Zm-3.965 2.174a.865.865 0 0 0-.268.59c-.299 4.655-4.196 8.307-8.866 8.307-.32.002-.64-.019-.957-.062.796-.513 1.7-1.232 2.335-2.182a.925.925 0 0 0-.051-1.092.904.904 0 0 0-.301-.24c-.153-.084-3.491-1.852-3.361-6.538C3.18 4.69 5.308 6.037 7.72 6.436a.919.919 0 0 0 1.072-.904V4.307a2.167 2.167 0 0 1 2.174-2.144 2.143 2.143 0 0 1 1.937 1.287.911.911 0 0 0 .842.55h.482l-.895.904Z" fill="#fff"/></svg></svg>