<svg width="50" height="43" viewBox="0 0 50 43" fill="none" xmlns="http://www.w3.org/2000/svg">
<path fill-rule="evenodd" clip-rule="evenodd" d="M30.0701 0.127892C27.0145 0.759403 25.0642 3.92599 25.8867 6.92089C26.3361 8.55735 26.3197 8.54899 21.4474 4.63715C19.0054 2.67658 16.8043 0.975972 16.556 0.857917C15.6857 0.444321 15.3077 0.469792 13.7209 1.04834C12.267 1.57851 8.74243 2.84571 5.12061 4.1404C3.02854 4.88835 2.44558 5.33928 2.18458 6.41174C2.03843 7.01186 2.05784 7.18355 2.38774 8.21315C2.81526 9.5472 3.4011 10.233 4.35308 10.5141C5.04104 10.7174 4.74805 10.8034 11.1109 8.52999C13.0563 7.83487 14.6911 7.26616 14.7437 7.26616C14.7963 7.26616 15.2396 7.58447 15.7286 7.97368C16.2178 8.36275 17.1824 9.1301 17.8722 9.67887C18.5621 10.2275 19.1265 10.7287 19.1265 10.7924C19.1265 10.8563 18.0219 12.5399 16.672 14.5339L14.2176 18.1593L13.4933 18.3652C13.095 18.4784 11.1392 18.9727 9.14726 19.4638C7.15513 19.9549 5.34018 20.4697 5.11405 20.6078C4.50825 20.9776 4.27692 21.4595 3.61151 23.738C-0.0224719 36.1812 0.0405562 35.9255 0.387822 36.8258C0.75163 37.7693 2.4747 38.6691 3.90792 38.6644C4.7754 38.6614 5.56891 38.216 5.95227 37.517C6.1136 37.2227 6.96864 34.4652 7.85253 31.3892C8.73641 28.3132 9.48003 25.7724 9.50505 25.7429C9.5555 25.6839 16.2982 24.0094 16.7327 23.9481C16.9873 23.9121 17.0195 24.0528 17.2336 26.1333C18.179 35.3219 18.122 34.9721 18.7794 35.62C19.0836 35.9199 20.4285 36.5819 23.305 37.8473C25.5562 38.8377 28.3824 40.0848 29.5855 40.6186C30.7886 41.1524 32.0627 41.697 32.4166 41.8286C33.7944 42.3409 34.9446 41.7408 35.8539 40.0351C36.4311 38.9524 36.4933 38.2428 36.0881 37.3631C35.7735 36.6802 35.6059 36.5678 33.5402 35.6555C32.6435 35.2593 30.1563 34.1619 28.0132 33.2165C25.8701 32.2712 24.1018 31.4838 24.0835 31.4668C24.0492 31.4349 23.8705 29.8181 23.5902 27.0029L23.4286 25.3793L25.9347 21.788L28.4406 18.1967L30.5696 19.9077C31.7404 20.8488 33.013 21.8793 33.3973 22.1979C33.7817 22.5165 34.4132 22.9924 34.8006 23.2554C35.9298 24.0218 36.1269 23.9859 41.2066 22.0869C43.6128 21.1873 46.0122 20.2971 46.5386 20.1088C47.9248 19.6127 48.4255 19.3358 48.9007 18.8022C49.524 18.1025 49.5874 17.404 49.1547 16.0058C48.6646 14.4215 47.9178 13.7349 46.6849 13.7349C46.0874 13.7349 45.1014 14.0744 38.4986 16.5541C37.6409 16.8762 36.946 17.0655 36.842 17.0054C36.7434 16.9485 35.1212 15.6611 33.2371 14.1447C29.2519 10.937 29.2654 10.9604 31.3263 10.8842C32.4097 10.8442 32.7269 10.7751 33.5149 10.4071C35.7665 9.35583 37.0358 7.03719 36.6432 4.69308C36.3051 2.67483 34.9566 1.03972 33.059 0.346751C32.2824 0.0630694 30.8802 -0.0396221 30.0701 0.127892Z" fill="white"/>
</svg>
