<svg width="22" height="18" viewBox="0 0 22 18" fill="none" xmlns="http://www.w3.org/2000/svg">
<path d="M21.2162 12.9984L16.8412 17.3734C16.674 17.5352 16.4504 17.6256 16.2178 17.6256C15.9851 17.6256 15.7616 17.5352 15.5943 17.3734L11.2193 12.9984C11.1006 12.8719 11.0202 12.7144 10.9873 12.5441C10.9544 12.3737 10.9704 12.1976 11.0334 12.0359C11.1003 11.8767 11.2129 11.7408 11.357 11.6454C11.501 11.5501 11.67 11.4995 11.8428 11.5H15.3428V6.25C15.3428 6.01794 15.435 5.79538 15.5991 5.63128C15.7631 5.46719 15.9857 5.375 16.2178 5.375C16.4498 5.375 16.6724 5.46719 16.8365 5.63128C17.0006 5.79538 17.0928 6.01794 17.0928 6.25V11.5H20.5928C20.7652 11.5009 20.9336 11.5521 21.0774 11.6472C21.2212 11.7424 21.334 11.8775 21.4021 12.0359C21.4652 12.1976 21.4812 12.3737 21.4483 12.5441C21.4154 12.7144 21.3349 12.8719 21.2162 12.9984ZM9.21777 7.125H1.34277C1.11071 7.125 0.888149 7.21719 0.724055 7.38128C0.559961 7.54538 0.467773 7.76794 0.467773 8C0.467773 8.23206 0.559961 8.45462 0.724055 8.61872C0.888149 8.78281 1.11071 8.875 1.34277 8.875H9.21777C9.44984 8.875 9.6724 8.78281 9.83649 8.61872C10.0006 8.45462 10.0928 8.23206 10.0928 8C10.0928 7.76794 10.0006 7.54538 9.83649 7.38128C9.6724 7.21719 9.44984 7.125 9.21777 7.125ZM1.34277 1.875H16.2178C16.4498 1.875 16.6724 1.78281 16.8365 1.61872C17.0006 1.45462 17.0928 1.23206 17.0928 1C17.0928 0.767936 17.0006 0.545376 16.8365 0.381282C16.6724 0.217187 16.4498 0.125 16.2178 0.125H1.34277C1.11071 0.125 0.888149 0.217187 0.724055 0.381282C0.559961 0.545376 0.467773 0.767936 0.467773 1C0.467773 1.23206 0.559961 1.45462 0.724055 1.61872C0.888149 1.78281 1.11071 1.875 1.34277 1.875ZM7.46777 14.125H1.34277C1.11071 14.125 0.888149 14.2172 0.724055 14.3813C0.559961 14.5454 0.467773 14.7679 0.467773 15C0.467773 15.2321 0.559961 15.4546 0.724055 15.6187C0.888149 15.7828 1.11071 15.875 1.34277 15.875H7.46777C7.69984 15.875 7.9224 15.7828 8.08649 15.6187C8.25059 15.4546 8.34277 15.2321 8.34277 15C8.34277 14.7679 8.25059 14.5454 8.08649 14.3813C7.9224 14.2172 7.69984 14.125 7.46777 14.125Z" fill="#FA207A"/>
</svg>
