<svg width="25" height="21" viewBox="0 0 25 21" fill="none" xmlns="http://www.w3.org/2000/svg">
<path fill-rule="evenodd" clip-rule="evenodd" d="M6.25157 3.84864C0.153043 7.99542 0.390768 7.80358 0.390768 8.57688C0.390768 9.4893 0.922089 9.95494 1.96327 9.95494H2.79577V12.0612C2.79577 14.0862 2.77838 14.1787 2.34733 14.4612C2.10072 14.6229 1.84524 14.9239 1.77975 15.1299C1.71444 15.3362 1.54165 15.5049 1.39587 15.5049C1.25009 15.5049 0.964268 15.6714 0.760768 15.8749C0.440163 16.1955 0.390768 16.4915 0.390768 18.0949C0.390768 20.9645 -0.807661 20.6849 11.4908 20.6849C23.6667 20.6849 22.5908 20.9001 22.5908 18.4649C22.5908 17.6509 22.5551 16.9849 22.5116 16.9849C22.4681 16.9849 21.6563 17.1929 20.7078 17.4469C18.5028 18.0378 17.9419 18.0283 15.4683 17.359C14.349 17.0562 13.2418 16.8064 13.0078 16.8042C12.388 16.7981 11.5354 16.3065 11.3988 15.877C11.3339 15.6724 11.12 15.5049 10.9234 15.5049C10.5828 15.5049 10.5658 15.3418 10.5658 12.0824C10.5658 8.78333 10.5791 8.65994 10.9358 8.65994C11.2493 8.65994 11.3058 8.53654 11.3058 7.85242C11.3058 6.83251 11.8526 6.06994 12.5841 6.06994C12.8653 6.06994 14.2452 6.35946 15.6505 6.71337L18.2055 7.35698L19.4731 7.06857C20.1704 6.91003 20.7371 6.72447 20.7323 6.65639C20.7276 6.58812 18.7748 5.22116 16.3927 3.61869C12.918 1.28121 11.9409 0.707159 11.4523 0.715669C10.9783 0.724179 9.82577 1.4183 6.25157 3.84864ZM12.1692 6.93333C12.1013 7.00104 12.0458 9.03919 12.0458 11.4623V15.8679L12.5545 15.98C12.8344 16.0416 14.2275 16.3774 15.6501 16.7261L18.2372 17.3601L20.9226 16.7034C22.3998 16.3421 23.797 16.0059 24.0278 15.9563L24.4472 15.8662L24.3979 11.3842L24.3483 6.90244L23.757 6.84527C23.4318 6.81382 22.2178 7.04267 21.0592 7.35402C19.9005 7.66519 18.6266 7.91938 18.2279 7.91883C17.8294 7.91828 16.5875 7.66908 15.4683 7.36494C13.4786 6.82437 12.4169 6.68543 12.1692 6.93333ZM13.3408 11.4821V14.8593L15.3295 15.3712C16.4232 15.6528 17.3826 15.8812 17.4613 15.879C17.5397 15.8768 17.5813 14.3642 17.5538 12.5177L17.5033 9.16055L15.5608 8.63737C14.4924 8.34969 13.5557 8.11215 13.4795 8.10956C13.4033 8.10698 13.3408 9.62471 13.3408 11.4821ZM20.8333 8.64921L18.9833 9.15703L18.9328 12.5161C18.9052 14.3635 18.9468 15.8768 19.0253 15.879C19.1039 15.8812 20.0633 15.6528 21.157 15.3712L23.1458 14.8593V11.4821C23.1458 8.89396 23.0917 8.10919 22.9145 8.12325C22.7874 8.13324 21.8508 8.37004 20.8333 8.64921ZM6.31077 12.0824V15.5049H7.32827H8.34577V12.0824V8.65994H7.32827H6.31077V12.0824ZM13.5258 9.09543C13.5258 9.28135 13.8084 9.45951 14.312 9.59086C14.7445 9.70389 15.5088 9.91516 16.0107 10.0606C17.1399 10.3878 17.4108 10.3919 17.4108 10.082C17.4108 9.93052 16.7677 9.67596 15.6995 9.40438C14.7582 9.16518 13.8843 8.93244 13.757 8.8873C13.6299 8.84235 13.5258 8.93596 13.5258 9.09543ZM20.8795 9.35776C19.7577 9.65709 19.0758 9.93089 19.0758 10.082C19.0758 10.3921 19.3464 10.3878 20.4758 10.0606C20.9778 9.91516 21.742 9.70389 22.1745 9.59086C22.6472 9.46746 22.9608 9.27784 22.9608 9.11522C22.9608 8.78555 23.0742 8.77223 20.8795 9.35776ZM13.5258 10.0402C13.5258 10.2028 13.8393 10.3925 14.312 10.5159C14.7445 10.6289 15.5088 10.8402 16.0107 10.9856C17.1329 11.3108 17.4108 11.3169 17.4108 11.0161C17.4108 10.8777 16.6665 10.5756 15.587 10.2761C13.4555 9.68447 13.5258 9.69261 13.5258 10.0402ZM20.787 10.2911C19.7849 10.5777 19.0758 10.8777 19.0758 11.0152C19.0758 11.3169 19.3529 11.311 20.4758 10.9856C20.9778 10.8402 21.742 10.6289 22.1745 10.5159C22.6472 10.3925 22.9608 10.2028 22.9608 10.0402C22.9608 9.69168 22.8307 9.70667 20.787 10.2911ZM13.5258 10.9652C13.5258 11.1278 13.8393 11.3175 14.312 11.4409C14.7445 11.5539 15.5088 11.7652 16.0107 11.9106C17.1433 12.2388 17.4108 12.2421 17.4108 11.9278C17.4108 11.7713 16.7372 11.4999 15.573 11.1878C13.4174 10.6097 13.5258 10.6215 13.5258 10.9652ZM20.787 11.2041C19.7122 11.5015 19.0758 11.77 19.0758 11.9263C19.0758 12.2421 19.3422 12.2391 20.4758 11.9106C20.9778 11.7652 21.742 11.5539 22.1745 11.4409C22.6472 11.3175 22.9608 11.1278 22.9608 10.9652C22.9608 10.6211 22.8498 10.6333 20.787 11.2041ZM13.5258 11.8671C13.5258 12.0236 14.1994 12.295 15.3636 12.6071C17.5192 13.1852 17.4108 13.1734 17.4108 12.8297C17.4108 12.667 17.0972 12.4774 16.6245 12.354C16.192 12.241 15.4278 12.0297 14.9258 11.8843C13.7933 11.5561 13.5258 11.5528 13.5258 11.8671ZM21.4808 11.8965C21.0229 12.0345 20.2945 12.2401 19.862 12.3533C19.3895 12.477 19.0758 12.667 19.0758 12.8297C19.0758 13.1773 19.0055 13.1854 21.137 12.5938C22.2165 12.2943 22.9608 11.9922 22.9608 11.8538C22.9608 11.5624 22.5506 11.5742 21.4808 11.8965ZM13.5258 12.7878C13.5258 12.9394 14.1688 13.1939 15.237 13.4655C16.1783 13.7047 17.0524 13.9374 17.1795 13.9826C17.3068 14.0275 17.4108 13.9339 17.4108 13.7745C17.4108 13.5885 17.1281 13.4104 16.6245 13.279C16.192 13.166 15.4278 12.9547 14.9258 12.8093C13.7966 12.482 13.5258 12.478 13.5258 12.7878ZM21.4808 12.8215C21.0229 12.9595 20.2945 13.1651 19.862 13.2783C19.3588 13.4102 19.0758 13.5887 19.0758 13.7745C19.0758 13.9339 19.1799 14.0275 19.307 13.9826C19.4343 13.9374 20.3082 13.7047 21.2495 13.4655C22.3177 13.1939 22.9608 12.9394 22.9608 12.7878C22.9608 12.4876 22.5589 12.4967 21.4808 12.8215ZM13.5258 13.7051C13.5258 13.8466 14.2077 14.1161 15.237 14.3816C16.1783 14.6243 17.0524 14.8604 17.1795 14.9063C17.3068 14.952 17.4108 14.8589 17.4108 14.6995C17.4108 14.5135 17.1281 14.3354 16.6245 14.204C16.192 14.091 15.4278 13.8797 14.9258 13.7343C13.8027 13.4089 13.5258 13.403 13.5258 13.7051ZM21.6658 13.6844C19.3166 14.3415 19.0758 14.4366 19.0758 14.7054C19.0758 14.8617 19.1799 14.952 19.307 14.9063C19.4343 14.8604 20.3082 14.6243 21.2495 14.3816C22.2789 14.1161 22.9608 13.8466 22.9608 13.7051C22.9608 13.4339 22.5828 13.4279 21.6658 13.6844Z" fill="#FA207A"/>
</svg>
