<svg width="21" height="21" viewBox="0 0 21 21" fill="none" xmlns="http://www.w3.org/2000/svg">
<path d="M14.8507 12.1948C14.9307 11.5348 14.9907 10.8748 14.9907 10.1948C14.9907 9.51482 14.9307 8.85482 14.8507 8.19482H18.2307C18.3907 8.83482 18.4907 9.50482 18.4907 10.1948C18.4907 10.8848 18.3907 11.5548 18.2307 12.1948M13.0807 17.7548C13.6807 16.6448 14.1407 15.4448 14.4607 14.1948H17.4107C16.4419 15.8631 14.9048 17.1268 13.0807 17.7548ZM12.8307 12.1948H8.15072C8.05072 11.5348 7.99072 10.8748 7.99072 10.1948C7.99072 9.51482 8.05072 8.84482 8.15072 8.19482H12.8307C12.9207 8.84482 12.9907 9.51482 12.9907 10.1948C12.9907 10.8748 12.9207 11.5348 12.8307 12.1948ZM10.4907 18.1548C9.66072 16.9548 8.99072 15.6248 8.58072 14.1948H12.4007C11.9907 15.6248 11.3207 16.9548 10.4907 18.1548ZM6.49072 6.19482H3.57072C4.52958 4.52204 6.06552 3.25631 7.89072 2.63482C7.29072 3.74482 6.84072 4.94482 6.49072 6.19482ZM3.57072 14.1948H6.49072C6.84072 15.4448 7.29072 16.6448 7.89072 17.7548C6.06935 17.1265 4.53557 15.8625 3.57072 14.1948ZM2.75072 12.1948C2.59072 11.5548 2.49072 10.8848 2.49072 10.1948C2.49072 9.50482 2.59072 8.83482 2.75072 8.19482H6.13072C6.05072 8.85482 5.99072 9.51482 5.99072 10.1948C5.99072 10.8748 6.05072 11.5348 6.13072 12.1948M10.4907 2.22482C11.3207 3.42482 11.9907 4.76482 12.4007 6.19482H8.58072C8.99072 4.76482 9.66072 3.42482 10.4907 2.22482ZM17.4107 6.19482H14.4607C14.1477 4.95628 13.6843 3.76072 13.0807 2.63482C14.9207 3.26482 16.4507 4.53482 17.4107 6.19482ZM10.4907 0.194824C4.96072 0.194824 0.490723 4.69482 0.490723 10.1948C0.490723 12.847 1.54429 15.3905 3.41965 17.2659C4.34824 18.1945 5.45063 18.9311 6.66389 19.4336C7.87714 19.9362 9.1775 20.1948 10.4907 20.1948C13.1429 20.1948 15.6864 19.1413 17.5618 17.2659C19.4372 15.3905 20.4907 12.847 20.4907 10.1948C20.4907 8.88161 20.2321 7.58125 19.7295 6.36799C19.227 5.15473 18.4904 4.05234 17.5618 3.12376C16.6332 2.19517 15.5308 1.45858 14.3176 0.956029C13.1043 0.453482 11.8039 0.194824 10.4907 0.194824Z" fill="#FA207A"/>
</svg>
