<svg width="36" height="51" viewBox="0 0 36 51" fill="none" xmlns="http://www.w3.org/2000/svg">
<path fill-rule="evenodd" clip-rule="evenodd" d="M1.07885 1.19987C0.416147 1.6039 0.120506 2.35969 0.325256 3.12619C0.390553 3.37097 2.06301 6.75875 4.04171 10.6546C7.39362 17.254 7.66957 17.7579 8.08027 18.0299C8.51591 18.3185 8.54698 18.3223 10.7254 18.3571L12.9297 18.3922L12.7928 18.9587C12.7174 19.2702 12.6227 20.0066 12.5824 20.595L12.509 21.6651L11.8016 21.9858C9.43576 23.0587 7.21326 24.9547 5.73987 27.1575C4.65684 28.7766 4.07769 30.0877 3.58233 32.0419C3.31196 33.1085 3.28954 33.3685 3.28954 35.4391C3.28954 37.5096 3.31196 37.7696 3.58233 38.8362C4.07835 40.7932 4.65662 42.1012 5.74446 43.7276C7.94235 47.0136 11.5487 49.3552 15.4831 50.051C16.8345 50.29 19.1497 50.2924 20.4842 50.0562C26.3012 49.0264 30.9574 44.7224 32.3836 39.0566C33.6826 33.8971 32.1428 28.5274 28.2968 24.8046C27.1272 23.6724 25.8599 22.7814 24.4518 22.1012L23.5222 21.6521L23.5167 20.4792C23.5137 19.8341 23.4713 19.0725 23.4223 18.7867L23.3333 18.2672H25.318C27.4427 18.2672 27.7985 18.1989 28.2401 17.7071C28.5495 17.3623 35.616 3.45923 35.7231 2.98454C35.8872 2.25665 35.4353 1.38614 34.7447 1.10012C34.5432 1.01667 32.8559 0.988998 29.2529 1.01011L24.0518 1.04062L23.6776 1.33079C23.3754 1.56519 22.8009 2.61168 20.6903 6.7722C19.2531 9.60545 18.0423 11.9234 17.9994 11.9234C17.9565 11.9234 16.7527 9.64712 15.3243 6.86484C13.896 4.08267 12.6213 1.69086 12.4919 1.54976C11.9684 0.979372 12.0379 0.985935 6.54716 0.986373C1.66641 0.986701 1.41212 0.996654 1.07885 1.19987ZM16.5422 18.8572C16.3834 19.1816 16.2214 19.7192 16.1822 20.052L16.1111 20.6568L17.3557 20.6018C18.0403 20.5716 18.9141 20.5926 19.2976 20.6486L19.9949 20.7503L19.9375 20.1167C19.9059 19.7682 19.7547 19.2096 19.6016 18.8752L19.3234 18.2672H18.0773H16.8311L16.5422 18.8572ZM16.6344 29.3743C15.9195 30.8513 15.2906 32.0868 15.2369 32.1201C15.1831 32.1533 13.9737 32.3465 12.5494 32.5494C11.1251 32.7522 9.79155 32.9477 9.58615 32.9838L9.21274 33.0494L11.3851 35.2239L13.5576 37.3983L13.049 40.3796C12.7693 42.0194 12.5524 43.3729 12.5669 43.3874C12.5815 43.402 13.8094 42.775 15.2956 41.9941L17.998 40.5742L20.6507 41.9969C22.2615 42.8607 23.3148 43.3666 23.3324 43.2847C23.3484 43.2106 23.1416 41.8564 22.8731 40.2754L22.3849 37.4008L24.5758 35.2471C25.7808 34.0626 26.7256 33.0809 26.6757 33.0657C26.6256 33.0504 25.2936 32.8435 23.7156 32.6057C22.1378 32.3679 20.8057 32.148 20.7556 32.117C20.7054 32.0861 20.0799 30.8521 19.3656 29.3749C18.6511 27.8977 18.0368 26.6891 18.0004 26.6891C17.9639 26.6891 17.3493 27.8974 16.6344 29.3743Z" fill="white"/>
</svg>
