<svg width="50" height="50" viewBox="0 0 50 50" fill="none" xmlns="http://www.w3.org/2000/svg">
<path fill-rule="evenodd" clip-rule="evenodd" d="M24.4856 0.827614C24.2511 1.15674 24.0375 1.47055 24.0112 1.52491C23.9849 1.57927 23.8308 1.81661 23.6689 2.05233C23.3404 2.53046 22.7171 3.86485 22.6264 4.28451C22.5332 4.71527 22.8167 5.5119 23.2307 5.98238L23.6022 6.40471L23.0024 6.79509L22.4026 7.18536L21.7952 6.77547C20.6135 5.97778 19.1418 5.67555 17.4363 5.88017C15.9779 6.05511 15.1392 6.35083 12.7073 7.54712L11.3086 8.23523L11.0351 8.01722C10.3334 7.45774 9.08183 7.5876 8.44674 8.28576C7.911 8.87481 7.74285 9.82667 8.06479 10.4491C8.57164 11.4293 9.36061 11.7896 10.5009 11.5616C10.8839 11.4849 11.5018 10.9523 11.7054 10.5231C11.7937 10.3372 11.9189 10.185 11.9837 10.185C12.0484 10.185 12.8428 9.81892 13.7487 9.37151C14.6547 8.9241 15.4288 8.55784 15.4688 8.55756C15.5088 8.55736 15.886 8.41859 16.3071 8.2493C17.0248 7.96075 17.1477 7.94123 18.269 7.93874C19.4562 7.93596 19.4708 7.93864 20.1831 8.28844C20.5779 8.48233 21.0318 8.76437 21.1918 8.9151C21.4454 9.15417 21.4844 9.25925 21.4955 9.73614C21.5345 11.4049 22.7562 12.8552 24.3035 13.0696C25.3246 13.2111 26.1729 13.0604 26.8372 12.6195C27.8178 11.9685 28.4139 10.897 28.441 9.73614C28.4521 9.25925 28.4911 9.15417 28.7447 8.9151C28.9047 8.76437 29.3586 8.48233 29.7534 8.28844C30.4657 7.93864 30.4803 7.93596 31.6675 7.93874C32.7888 7.94123 32.9117 7.96075 33.6294 8.2493C34.0505 8.41859 34.4277 8.55736 34.4678 8.55756C34.5078 8.55784 35.2818 8.9241 36.1878 9.37151C37.0938 9.81892 37.8881 10.185 37.9528 10.185C38.0176 10.185 38.1428 10.3372 38.2311 10.5231C38.4347 10.9523 39.0526 11.4849 39.4356 11.5616C40.5759 11.7896 41.3649 11.4293 41.8717 10.4491C42.1937 9.82667 42.0255 8.87481 41.4898 8.28576C40.8547 7.5876 39.6031 7.45774 38.9014 8.01722L38.628 8.23523L37.2293 7.54712C34.7974 6.35083 33.9586 6.05511 32.5002 5.88017C30.7948 5.67555 29.323 5.97778 28.1413 6.77547L27.534 7.18536L26.9341 6.79509L26.3343 6.40471L26.7044 5.984C27.1348 5.49486 27.3918 4.75278 27.3001 4.26384C27.217 3.82102 26.5831 2.48146 26.2184 1.97806C26.0572 1.75546 25.9253 1.55161 25.9253 1.52491C25.9253 1.45083 25.0561 0.283159 24.9796 0.254448C24.9425 0.240476 24.7202 0.498396 24.4856 0.827614ZM9.40827 12.9498C9.08202 13.1487 8.83922 13.6047 8.35784 14.9223C8.18471 15.396 7.86324 16.2574 7.64341 16.8364C7.42349 17.4154 7.14537 18.169 7.02527 18.5112C6.90506 18.8533 6.67844 19.4562 6.52158 19.851C6.17657 20.7191 5.61585 22.1933 5.06546 23.6791C4.66121 24.7705 4.3941 25.474 3.64857 27.4115C3.43592 27.9642 3.23102 28.5241 3.19331 28.6557C3.15551 28.7873 2.99473 29.2071 2.83586 29.5888L2.54722 30.2826H1.50769C0.489795 30.2826 0.468262 30.2871 0.468262 30.5007C0.468262 30.6206 0.61641 31.0278 0.79748 31.4056C2.11292 34.1505 4.65365 36.2174 7.55029 36.899C8.85367 37.2057 10.8608 37.2091 12.1765 36.9067C14.3945 36.397 16.3296 35.1473 17.8317 33.2544C18.3427 32.6103 19.0823 31.3486 19.2227 30.8809C19.2663 30.7361 19.3325 30.5422 19.3699 30.4501C19.4324 30.2963 19.347 30.2826 18.3251 30.2826C17.2592 30.2826 17.2087 30.2736 17.1297 30.0673C17.0844 29.9488 16.8695 29.3998 16.6522 28.8471C16.435 28.2944 16.2577 27.7924 16.2582 27.7315C16.2588 27.6706 16.1369 27.3476 15.9872 27.0137C15.8376 26.6798 15.6614 26.2344 15.5958 26.0239C15.5301 25.8133 15.3354 25.275 15.1629 24.8276C14.9904 24.3802 14.6769 23.5619 14.4663 23.0092C14.2556 22.4565 13.9054 21.5444 13.6878 20.9822C13.4704 20.4201 13.2925 19.9292 13.2925 19.8914C13.2925 19.8536 13.1138 19.3661 12.8955 18.808C12.6771 18.25 12.3268 17.3412 12.1171 16.7885C11.9073 16.2358 11.5942 15.4176 11.4215 14.9701C11.2486 14.5227 11.0772 14.049 11.0405 13.9174C10.866 13.2918 10.3351 12.7684 9.87588 12.7694C9.78113 12.7695 9.57068 12.8507 9.40827 12.9498ZM39.5956 12.9148C39.3265 13.061 39.0072 13.5185 38.896 13.9174C38.8593 14.049 38.6879 14.5227 38.515 14.9701C38.3423 15.4176 38.0293 16.2358 37.8195 16.7885C37.6097 17.3412 37.2594 18.25 37.041 18.808C36.8227 19.3661 36.644 19.8536 36.644 19.8914C36.644 19.9292 36.4661 20.4201 36.2487 20.9822C36.0312 21.5444 35.6809 22.4565 35.4702 23.0092C35.2596 23.5619 34.9461 24.3802 34.7736 24.8276C34.6012 25.275 34.4064 25.8133 34.3408 26.0239C34.2751 26.2344 34.0989 26.6798 33.9493 27.0137C33.7996 27.3476 33.6777 27.6706 33.6783 27.7315C33.6789 27.7924 33.5015 28.2944 33.2843 28.8471C33.067 29.3998 32.8521 29.9488 32.8068 30.0673C32.7278 30.2736 32.6773 30.2826 31.6114 30.2826C30.5895 30.2826 30.5041 30.2963 30.5666 30.4501C30.604 30.5422 30.6703 30.7361 30.7138 30.8809C30.8542 31.3486 31.5938 32.6103 32.1048 33.2544C33.6069 35.1473 35.542 36.397 37.76 36.9067C39.0758 37.2091 41.0829 37.2057 42.3862 36.899C45.2829 36.2174 47.8236 34.1505 49.139 31.4056C49.3201 31.0278 49.4683 30.6206 49.4683 30.5007C49.4683 30.2871 49.4467 30.2826 48.4288 30.2826H47.3893L47.1007 29.5888C46.9418 29.2071 46.781 28.7873 46.7432 28.6557C46.7055 28.5241 46.5006 27.9642 46.288 27.4115C45.5424 25.474 45.2753 24.7705 44.8711 23.6791C44.3207 22.1933 43.76 20.7191 43.4149 19.851C43.2581 19.4562 43.0315 18.8533 42.9113 18.5112C42.7911 18.169 42.513 17.4154 42.2931 16.8364C42.0733 16.2574 41.7518 15.396 41.5787 14.9223C41.0973 13.6047 40.8545 13.1487 40.5283 12.9498C40.1781 12.7362 39.9408 12.7273 39.5956 12.9148ZM21.363 15.6523C21.4662 16.5236 21.8061 17.2398 22.4082 17.8547L22.9585 18.4167V29.3565V40.2962L22.3626 40.577C21.576 40.9478 20.4893 41.9789 20.0143 42.8054C19.6774 43.3915 19.411 44.1848 19.2703 45.0209L19.214 45.3559L17.4256 45.325C15.3639 45.2893 14.8312 45.3715 14.3035 45.8065C13.7137 46.2926 13.5841 46.697 13.5817 48.0595L13.5796 49.2319H24.9683H36.3569L36.3548 48.0595C36.3524 46.697 36.2229 46.2926 35.633 45.8065C35.1053 45.3715 34.5726 45.2893 32.5109 45.325L30.7225 45.3559L30.6662 45.0209C30.5256 44.1848 30.2591 43.3915 29.9222 42.8054C29.4473 41.9789 28.3606 40.9478 27.5739 40.577L26.978 40.2962V29.3565V18.4167L27.5283 17.8547C28.1304 17.2398 28.4703 16.5236 28.5735 15.6523L28.6317 15.1616H24.9683H21.3048L21.363 15.6523ZM9.71347 17.2374C9.62322 17.4906 9.37956 18.1361 9.17189 18.6719C8.96431 19.2078 8.79443 19.6799 8.79443 19.721C8.79443 19.7623 8.64877 20.1637 8.47077 20.613C8.29276 21.0624 7.97512 21.8823 7.76476 22.435C7.5545 22.9877 7.2048 23.8998 6.98785 24.462C6.77079 25.0241 6.59326 25.515 6.59326 25.5528C6.59326 25.6145 6.36903 26.2004 5.53364 28.3207C5.26509 29.0024 4.87061 30.1394 4.87061 30.2317C4.87061 30.2598 7.15131 30.2826 9.93885 30.2826H15.0071L14.6893 29.4931C14.5145 29.0588 14.2129 28.2729 14.0191 27.7465C13.6884 26.8487 13.5228 26.4103 12.5552 23.8705C12.3446 23.3178 11.9883 22.3704 11.7635 21.7651C11.3644 20.6908 10.8863 19.4318 10.3643 18.0805C10.2218 17.712 10.0542 17.2681 9.99149 17.0939L9.87751 16.7771L9.71347 17.2374ZM39.9937 16.8886C39.9937 16.9612 39.8487 17.3883 39.6715 17.8376C39.2482 18.9111 38.6792 20.4025 38.173 21.7651C37.9482 22.3704 37.5919 23.3178 37.3813 23.8705C36.4137 26.4103 36.2481 26.8487 35.9175 27.7465C35.7237 28.2729 35.422 29.0588 35.2473 29.4931L34.9294 30.2826H39.9977C42.7852 30.2826 45.0659 30.2598 45.0659 30.2317C45.0659 30.1394 44.6714 29.0024 44.4029 28.3207C43.5675 26.2004 43.3433 25.6145 43.3433 25.5528C43.3433 25.515 43.1657 25.0241 42.9487 24.462C42.7317 23.8998 42.3901 23.0092 42.1897 22.4828C41.9892 21.9565 41.7084 21.2243 41.5658 20.8559C41.4231 20.4874 41.1886 19.863 41.0446 19.4682C40.9006 19.0734 40.627 18.3236 40.4366 17.8018C40.0854 16.8399 39.9937 16.6507 39.9937 16.8886Z" fill="white"/>
</svg>
