<svg width="38" height="35" viewBox="0 0 38 35" fill="none" xmlns="http://www.w3.org/2000/svg">
<path d="M4.48942 34.982C3.3665 34.982 2.40555 34.5825 1.60658 33.7836C0.806248 32.9832 0.406082 32.0216 0.406082 30.8987V8.44035H10.6144V4.35702C10.6144 3.2341 11.0146 2.27247 11.8149 1.47214C12.6139 0.673168 13.5748 0.273682 14.6977 0.273682H22.8644C23.9873 0.273682 24.949 0.673168 25.7493 1.47214C26.5483 2.27247 26.9478 3.2341 26.9478 4.35702V8.44035H37.1561V30.8987C37.1561 32.0216 36.7566 32.9832 35.9576 33.7836C35.1573 34.5825 34.1957 34.982 33.0728 34.982H4.48942ZM14.6977 8.44035H22.8644V4.35702H14.6977V8.44035Z" fill="white"/>
</svg>
