<svg width="37" height="37" viewBox="0 0 37 37" fill="none" xmlns="http://www.w3.org/2000/svg">
<g clip-path="url(#clip0_43_2325)">
<path d="M2.49302 0.101173C1.88599 0.252932 1.43071 0.513088 0.968213 0.975588C0.498486 1.44531 0.209424 1.9584 0.0793457 2.58711C-0.0290527 3.12188 -0.0290527 12.0611 0.0793457 12.5887C0.346729 13.8316 1.34399 14.8289 2.58696 15.0963C2.82544 15.1469 3.77212 15.1758 5.04399 15.1758H7.11802L8.05747 16.1225C9.67622 17.7484 9.8352 17.7484 11.454 16.1225L12.3934 15.1758H18.4999H24.6063L25.5458 16.1225C26.5141 17.0908 26.861 17.3438 27.244 17.3438C27.627 17.3438 27.9739 17.0908 28.9422 16.1225L29.8817 15.1758H31.9557C34.1743 15.1758 34.5428 15.1324 35.186 14.8217C36.0243 14.417 36.7252 13.5137 36.9204 12.5887C37.0288 12.0539 37.0288 3.11465 36.9204 2.58711C36.653 1.34414 35.6485 0.339651 34.4127 0.0794945C33.8274 -0.0433578 2.98442 -0.021677 2.49302 0.101173ZM14.5975 4.48047C14.9227 4.64668 15.1756 5.05859 15.1756 5.41992C15.1756 5.78125 14.9227 6.19317 14.5975 6.35938C14.3229 6.49668 14.1784 6.50391 9.74849 6.50391H5.18853L4.89946 6.34492C4.16958 5.93301 4.16235 4.94297 4.88501 4.50938L5.16685 4.33594H9.74126C14.1856 4.33594 14.3229 4.34317 14.5975 4.48047ZM32.0858 4.48047C32.411 4.64668 32.6639 5.05859 32.6639 5.41992C32.6639 5.78125 32.411 6.19317 32.0858 6.35938C31.8112 6.49668 31.6666 6.50391 27.2368 6.50391H22.6768L22.3877 6.34492C21.6579 5.93301 21.6506 4.94297 22.3733 4.50938L22.6551 4.33594H27.2295C31.6739 4.33594 31.8112 4.34317 32.0858 4.48047ZM14.5975 8.81641C14.9227 8.98262 15.1756 9.39453 15.1756 9.75586C15.1756 10.1172 14.9227 10.5291 14.5975 10.6953C14.3229 10.8326 14.1784 10.8398 9.74849 10.8398H5.18853L4.89946 10.6809C4.16958 10.2689 4.16235 9.27891 4.88501 8.84531L5.16685 8.67188H9.74126C14.1856 8.67188 14.3229 8.6791 14.5975 8.81641ZM32.0858 8.81641C32.411 8.98262 32.6639 9.39453 32.6639 9.75586C32.6639 10.1172 32.411 10.5291 32.0858 10.6953C31.8112 10.8326 31.6666 10.8398 27.2368 10.8398H22.6768L22.3877 10.6809C21.6579 10.2689 21.6506 9.27891 22.3733 8.84531L22.6551 8.67188H27.2295C31.6739 8.67188 31.8112 8.6791 32.0858 8.81641Z" fill="#FA207A"/>
<path d="M8.88931 19.7719C6.96705 20.1838 5.49283 22.0193 5.49283 23.9922C5.49283 25.965 6.9815 27.815 8.88931 28.2125L9.35904 28.3064L9.06998 28.357C7.09713 28.675 5.78912 29.2965 4.55338 30.4961C3.19478 31.8186 2.38541 33.5529 2.26978 35.4102C2.22642 36.0244 2.24088 36.1328 2.37818 36.4074C2.47935 36.6098 2.62388 36.7543 2.819 36.8555C3.09361 37 3.23091 37 9.82877 37C16.4266 37 16.5639 37 16.8385 36.8555C17.0336 36.7543 17.1782 36.6098 17.2794 36.4074C17.4167 36.1328 17.4311 36.0244 17.3877 35.4102C17.2071 32.6207 15.4149 30.077 12.8639 28.9713C12.2352 28.7039 11.1801 28.4004 10.8477 28.4004C10.7465 28.4004 10.5803 28.3787 10.4792 28.3498C10.3419 28.3137 10.3997 28.2848 10.7682 28.2053C12.3436 27.8873 13.7167 26.507 14.0563 24.8955C14.367 23.4213 13.9407 22.0266 12.8711 20.9498C11.7944 19.873 10.3635 19.4539 8.88931 19.7719Z" fill="#FA207A"/>
<path d="M26.2331 19.7719C24.3108 20.1838 22.8366 22.0193 22.8366 23.9922C22.8366 25.965 24.3253 27.815 26.2331 28.2125L26.7028 28.3064L26.4137 28.357C24.4409 28.675 23.1329 29.2965 21.8971 30.4961C20.5385 31.8186 19.7292 33.5529 19.6135 35.4102C19.5702 36.0244 19.5846 36.1328 19.7219 36.4074C19.8231 36.6098 19.9676 36.7543 20.1628 36.8555C20.4374 37 20.5747 37 27.1725 37C33.7704 37 33.9077 37 34.1823 36.8555C34.3774 36.7543 34.5219 36.6098 34.6231 36.4074C34.7604 36.1328 34.7749 36.0244 34.7315 35.4102C34.5508 32.6207 32.7586 30.077 30.2077 28.9713C29.579 28.7039 28.5239 28.4004 28.1915 28.4004C28.0903 28.4004 27.9241 28.3787 27.8229 28.3498C27.6856 28.3137 27.7434 28.2848 28.112 28.2053C29.6874 27.8873 31.0604 26.507 31.4001 24.8955C31.7108 23.4213 31.2844 22.0266 30.2149 20.9498C29.1381 19.873 27.7073 19.4539 26.2331 19.7719Z" fill="#FA207A"/>
</g>
<defs>
<clipPath id="clip0_43_2325">
<rect width="37" height="37" rx="6" fill="white"/>
</clipPath>
</defs>
</svg>
