<svg width="20" height="18" viewBox="0 0 20 18" fill="none" xmlns="http://www.w3.org/2000/svg">
<path d="M19.8114 2.80238C19.7338 2.61553 19.6026 2.4559 19.4343 2.34368C19.2659 2.23146 19.0681 2.17171 18.8658 2.172H16.4635C15.9474 1.36538 15.1837 0.747749 14.287 0.411658C13.3903 0.0755676 12.4088 0.0391169 11.4896 0.307768C10.5705 0.57642 9.76311 1.13571 9.18854 1.90181C8.61398 2.66792 8.30315 3.5996 8.30264 4.55723V4.62538C5.12517 3.64573 2.57808 1.13272 2.55253 1.10716C2.42029 0.974998 2.25434 0.881629 2.07274 0.837215C1.89113 0.7928 1.70082 0.799039 1.52252 0.855254C1.34421 0.911469 1.18474 1.01551 1.06144 1.15605C0.938149 1.29659 0.855758 1.46825 0.823234 1.65236C0.0565524 5.87762 1.33435 8.72286 2.53549 10.3584C3.06714 11.0821 3.69803 11.7274 4.4096 12.2752C3.18291 13.5018 1.48769 14.1578 1.47065 14.1663C1.32609 14.2183 1.19551 14.3031 1.08912 14.4139C0.98272 14.5247 0.903385 14.6586 0.857308 14.8052C0.810619 14.9525 0.797099 15.1084 0.817718 15.2615C0.838337 15.4147 0.892583 15.5614 0.97657 15.6911C1.13842 15.9382 2.11807 17.1649 5.23591 17.1649C11.3779 17.1649 16.5232 12.4711 17.1024 6.39726L19.5899 3.91833C19.7313 3.77398 19.8276 3.59155 19.8669 3.39335C19.9062 3.19515 19.8869 2.98978 19.8114 2.80238ZM15.3987 5.22168C15.2181 5.39349 15.1113 5.62862 15.1005 5.87762C14.7683 11.057 10.4323 15.1204 5.23591 15.1204C4.87981 15.1226 4.52399 15.0998 4.17108 15.0522C5.05702 14.4815 6.06222 13.6807 6.76927 12.6244C6.84975 12.5028 6.90351 12.3655 6.927 12.2216C6.9505 12.0777 6.94319 11.9305 6.90557 11.7896C6.86911 11.6501 6.80308 11.5201 6.71195 11.4084C6.62082 11.2967 6.50673 11.2059 6.37741 11.1422C6.20704 11.0485 2.4929 9.08065 2.63771 3.86721C4.10293 4.98316 6.47112 6.48245 9.1545 6.92542C9.30086 6.95016 9.45084 6.94273 9.59404 6.90365C9.73723 6.86457 9.87019 6.79477 9.98369 6.69911C10.0972 6.60345 10.1885 6.48423 10.2512 6.34972C10.314 6.21521 10.3467 6.06865 10.3471 5.92022V4.55723C10.3539 3.92081 10.612 3.31288 11.0652 2.86604C11.5184 2.4192 12.13 2.16971 12.7664 2.172C13.2253 2.17795 13.6726 2.31614 14.0549 2.56998C14.4372 2.82382 14.7381 3.18255 14.9216 3.60313C15.0003 3.78612 15.1311 3.94188 15.2978 4.05096C15.4644 4.16004 15.6595 4.21761 15.8587 4.21648H16.3954L15.3987 5.22168Z" fill="#181817"/>
</svg>
