<svg width="18" height="18" viewBox="0 0 18 18" fill="none" xmlns="http://www.w3.org/2000/svg">
<path d="M17.7197 5.13854C17.6798 4.23335 17.5334 3.61104 17.3237 3.07179C17.1074 2.4994 16.7746 1.98694 16.3386 1.56093C15.9126 1.12829 15.3967 0.792105 14.831 0.579165C14.2886 0.369474 13.6696 0.223093 12.7644 0.183183C11.8524 0.139893 11.5629 0.129883 9.24994 0.129883C6.93697 0.129883 6.64746 0.139893 5.73888 0.179803C4.83369 0.219713 4.21138 0.366224 3.67227 0.575785C3.09974 0.792105 2.58728 1.12491 2.16127 1.56093C1.72863 1.98694 1.39258 2.50278 1.17951 3.06854C0.969816 3.61104 0.823435 4.22997 0.783525 5.13516C0.740235 6.04712 0.730225 6.33663 0.730225 8.6496C0.730225 10.9626 0.740235 11.2521 0.780145 12.1606C0.820055 13.0658 0.966565 13.6882 1.17626 14.2274C1.39258 14.7998 1.72863 15.3123 2.16127 15.7383C2.58728 16.1709 3.10312 16.5071 3.66889 16.72C4.21138 16.9297 4.83031 17.0761 5.73563 17.116C6.64408 17.156 6.93372 17.1659 9.24669 17.1659C11.5597 17.1659 11.8492 17.156 12.7577 17.116C13.6629 17.0761 14.2852 16.9297 14.8244 16.72C15.9693 16.2774 16.8745 15.3722 17.3171 14.2274C17.5267 13.6849 17.6732 13.0658 17.7131 12.1606C17.753 11.2521 17.763 10.9626 17.763 8.6496C17.763 6.33663 17.7596 6.04712 17.7197 5.13854ZM16.1856 12.0941C16.1489 12.9261 16.0092 13.3754 15.8927 13.6749C15.6064 14.4171 15.0174 15.0061 14.2752 15.2924C13.9757 15.4088 13.5232 15.5486 12.6944 15.5851C11.7959 15.6252 11.5264 15.635 9.25332 15.635C6.98026 15.635 6.70739 15.6252 5.81207 15.5851C4.98007 15.5486 4.53079 15.4088 4.23127 15.2924C3.86194 15.1559 3.52575 14.9395 3.25288 14.6567C2.97 14.3804 2.75368 14.0476 2.61718 13.6783C2.5007 13.3788 2.36095 12.9261 2.32442 12.0975C2.28438 11.1989 2.2745 10.9293 2.2745 8.65623C2.2745 6.38317 2.28438 6.1103 2.32442 5.21511C2.36095 4.38311 2.5007 3.93383 2.61718 3.63431C2.75368 3.26484 2.97 2.92879 3.25626 2.65579C3.53239 2.37291 3.86519 2.15659 4.23465 2.02022C4.53417 1.90374 4.98683 1.76399 5.81545 1.72733C6.71402 1.68742 6.98364 1.67741 9.25657 1.67741C11.533 1.67741 11.8025 1.68742 12.6978 1.72733C13.5298 1.76399 13.9791 1.90374 14.2786 2.02022C14.6479 2.15659 14.9841 2.37291 15.257 2.65579C15.5399 2.93204 15.7562 3.26484 15.8927 3.63431C16.0092 3.93383 16.1489 4.38636 16.1856 5.21511C16.2255 6.11368 16.2355 6.38317 16.2355 8.65623C16.2355 10.9293 16.2255 11.1955 16.1856 12.0941Z" fill="#181817"/>
<path d="M9.24914 4.27344C6.83308 4.27344 4.8728 6.23358 4.8728 8.64977C4.8728 11.066 6.83308 13.0261 9.24914 13.0261C11.6653 13.0261 13.6255 11.066 13.6255 8.64977C13.6255 6.23358 11.6653 4.27344 9.24914 4.27344ZM9.24914 11.4886C7.68172 11.4886 6.41032 10.2173 6.41032 8.64977C6.41032 7.08223 7.68172 5.81095 9.24914 5.81095C10.8167 5.81095 12.088 7.08223 12.088 8.64977C12.088 10.2173 10.8167 11.4886 9.24914 11.4886Z" fill="#181817"/>
<path d="M14.8202 4.0996C14.8202 4.6637 14.3628 5.12108 13.7986 5.12108C13.2345 5.12108 12.7771 4.6637 12.7771 4.0996C12.7771 3.53538 13.2345 3.07812 13.7986 3.07812C14.3628 3.07812 14.8202 3.53538 14.8202 4.0996Z" fill="#181817"/>
</svg>
