<svg width="37" height="37" viewBox="0 0 37 37" fill="none" xmlns="http://www.w3.org/2000/svg">
<g clip-path="url(#clip0_42_2250)">
<path d="M9.39453 4.4082C4.52383 6.84355 0.48418 8.85977 0.419141 8.8959C0.238477 8.98984 0 9.48848 0 9.75586C0 10.1172 0.25293 10.5291 0.578125 10.6953C0.859961 10.8398 0.961133 10.8398 18.5 10.8398C36.0389 10.8398 36.14 10.8398 36.4219 10.6953C36.7471 10.5291 37 10.11 37 9.74141C37 9.61133 36.9205 9.37285 36.8338 9.21387C36.6748 8.93203 36.4363 8.80918 27.7861 4.4877C21.0654 1.13457 18.818 0.0433588 18.5723 0.0216799C18.2543 -0.0144529 17.8857 0.166211 9.39453 4.4082ZM19.0059 4.8418C19.3311 5.00801 19.584 5.41992 19.584 5.78125C19.584 6.33047 19.0492 6.86523 18.4928 6.86523C18.1604 6.86523 17.7123 6.5834 17.5533 6.27266C17.2859 5.75234 17.4521 5.18145 17.9652 4.8707C18.3121 4.66113 18.6301 4.65391 19.0059 4.8418Z" fill="#FA207A"/>
<path d="M2.24023 13.6582C2.24023 14.4676 2.38477 14.8072 2.81836 15.0312C3.09297 15.1686 3.2375 15.1758 6.9375 15.1758C10.6375 15.1758 10.782 15.1686 11.0566 15.0312C11.4902 14.8072 11.6348 14.4676 11.6348 13.6582V13.0078H6.9375H2.24023V13.6582Z" fill="#FA207A"/>
<path d="M13.8027 13.6582C13.8027 14.4676 13.9473 14.8072 14.3809 15.0312C14.6555 15.1686 14.8 15.1758 18.5 15.1758C22.2 15.1758 22.3445 15.1686 22.6191 15.0312C23.0527 14.8072 23.1973 14.4676 23.1973 13.6582V13.0078H18.5H13.8027V13.6582Z" fill="#FA207A"/>
<path d="M25.3652 13.6582C25.3652 14.4676 25.5098 14.8072 25.9434 15.0312C26.218 15.1686 26.3625 15.1758 30.0625 15.1758C33.7625 15.1758 33.907 15.1686 34.1816 15.0312C34.6152 14.8072 34.7598 14.4676 34.7598 13.6582V13.0078H30.0625H25.3652V13.6582Z" fill="#FA207A"/>
<path d="M4.4082 21.752V26.1602H6.9375H9.4668V21.752V17.3438H6.9375H4.4082V21.752Z" fill="#FA207A"/>
<path d="M15.9707 21.752V26.1602H18.5H21.0293V21.752V17.3438H18.5H15.9707V21.752Z" fill="#FA207A"/>
<path d="M27.5332 21.752V26.1602H30.0625H32.5918V21.752V17.3438H30.0625H27.5332V21.752Z" fill="#FA207A"/>
<path d="M2.80391 28.4799C2.38477 28.6967 2.24023 29.0508 2.24023 29.8457V30.4961H6.9375H11.6348V29.8457C11.6348 29.0363 11.4902 28.6967 11.0566 28.4727C10.782 28.3354 10.6447 28.3281 6.92305 28.3281C3.23027 28.3354 3.05684 28.3426 2.80391 28.4799Z" fill="#FA207A"/>
<path d="M14.3664 28.4799C13.9473 28.6967 13.8027 29.0508 13.8027 29.8457V30.4961H18.5H23.1973V29.8457C23.1973 29.0363 23.0527 28.6967 22.6191 28.4727C22.3445 28.3354 22.2072 28.3281 18.4855 28.3281C14.7928 28.3354 14.6193 28.3426 14.3664 28.4799Z" fill="#FA207A"/>
<path d="M25.9289 28.4799C25.5098 28.6967 25.3652 29.0508 25.3652 29.8457V30.4961H30.0625H34.7598V29.8457C34.7598 29.0363 34.6152 28.6967 34.1816 28.4727C33.907 28.3354 33.7697 28.3281 30.048 28.3281C26.3553 28.3354 26.1818 28.3426 25.9289 28.4799Z" fill="#FA207A"/>
<path d="M0.563672 32.8158C0.0722656 33.0687 0 33.3289 0 34.832C0 36.3424 0.0578125 36.5592 0.563672 36.841L0.852734 37H18.4928C36.0389 37 36.14 37 36.4219 36.8555C36.9277 36.5953 37 36.3496 37 34.832C37 33.3145 36.9277 33.0687 36.4219 32.8086C36.14 32.6641 36.0389 32.6641 18.4855 32.6641C1.04785 32.6713 0.831055 32.6713 0.563672 32.8158Z" fill="#FA207A"/>
</g>
<defs>
<clipPath id="clip0_42_2250">
<rect width="37" height="37" rx="6" fill="white"/>
</clipPath>
</defs>
</svg>
