<svg width="30" height="38" viewBox="0 0 30 38" fill="none" xmlns="http://www.w3.org/2000/svg">
<path d="M0.570312 1.07031L0.375 1.25781V19V36.7422L0.570312 36.9297C0.726562 37.0938 0.835938 37.125 1.19531 37.125H1.625V19V0.875H1.19531C0.835938 0.875 0.726562 0.90625 0.570312 1.07031Z" fill="#FA207A"/>
<path d="M2.875 19V37.125H16H29.125V19V0.875H16H2.875V19ZM16.625 4.69531C16.625 5.33594 16.6406 5.39844 16.7891 5.44531C17.0391 5.52344 17.5312 6 17.6406 6.26562L17.7344 6.5H22.1797H26.625V7.125V7.75H25.5312C24.9297 7.75 24.4375 7.78125 24.4375 7.8125C24.4375 7.84375 24.9297 9.22656 25.5391 10.875L26.6328 13.8828L26.6016 14.6406C26.5703 15.3281 26.5391 15.4688 26.2891 15.9844C25.9453 16.6797 25.4844 17.125 24.7656 17.4609C24.2891 17.6875 24.1719 17.7109 23.4922 17.7109C22.7891 17.7109 22.7188 17.6953 22.1562 17.4219C21.4453 17.0703 21 16.6094 20.6719 15.8984C20.4688 15.4609 20.4219 15.2656 20.3984 14.6328L20.3672 13.8828L21.4609 10.875C22.0703 9.22656 22.5625 7.84375 22.5625 7.8125C22.5625 7.78125 21.4766 7.75 20.1484 7.75C17.7578 7.75 17.7266 7.75 17.6797 7.91406C17.6016 8.16406 17.125 8.65625 16.8594 8.76562L16.625 8.85938V12.9922V17.125H17.6797C18.7031 17.125 18.75 17.1328 18.9297 17.3203C19.1172 17.5 19.125 17.5469 19.125 18.5703V19.625H19.5547C19.9141 19.625 20.0234 19.6562 20.1797 19.8203C20.375 20.0078 20.375 20.0234 20.375 21.5C20.375 22.9766 20.375 22.9922 20.1797 23.1797L19.9922 23.375H16H12.0078L11.8203 23.1797C11.625 22.9922 11.625 22.9766 11.625 21.5C11.625 20.0234 11.625 20.0078 11.8203 19.8203C11.9766 19.6562 12.0859 19.625 12.4453 19.625H12.875V18.5703C12.875 17.5469 12.8828 17.5 13.0703 17.3203C13.25 17.1328 13.2969 17.125 14.3203 17.125H15.375V12.9922V8.85938L15.1406 8.76562C14.875 8.65625 14.3984 8.16406 14.3203 7.91406C14.2734 7.75 14.2422 7.75 11.8516 7.75C10.5234 7.75 9.4375 7.78125 9.4375 7.8125C9.4375 7.84375 9.92969 9.22656 10.5391 10.875L11.6328 13.8828L11.6016 14.6328C11.5781 15.2656 11.5312 15.4609 11.3281 15.8984C11 16.6094 10.5547 17.0703 9.84375 17.4219C9.28125 17.6953 9.21094 17.7109 8.5 17.7109C7.78906 17.7109 7.71875 17.6953 7.15625 17.4219C6.44531 17.0703 6 16.6094 5.67188 15.8984C5.46875 15.4609 5.42188 15.2656 5.39844 14.6328L5.36719 13.8828L6.46094 10.875C7.07031 9.22656 7.5625 7.84375 7.5625 7.8125C7.5625 7.78125 7.07031 7.75 6.46875 7.75H5.375V7.125V6.5H9.82031H14.2656L14.3594 6.26562C14.4688 6 14.9609 5.52344 15.2109 5.44531C15.3594 5.39844 15.375 5.33594 15.375 4.69531V4H16H16.625V4.69531ZM26.4297 25.4453L26.625 25.6328V29.625V33.6172L26.4297 33.8047L26.2422 34H16H5.75781L5.57031 33.8047L5.375 33.6172V29.625V25.6328L5.57031 25.4453L5.75781 25.25H16H26.2422L26.4297 25.4453Z" fill="#FA207A"/>
<path d="M15.5706 6.69531C15.1799 7.07812 15.4534 7.75 16.0003 7.75C16.1487 7.75 16.3128 7.67969 16.4299 7.55469C16.5549 7.4375 16.6253 7.27344 16.6253 7.125C16.6253 6.97656 16.5549 6.8125 16.4299 6.69531C16.3128 6.57031 16.1487 6.5 16.0003 6.5C15.8518 6.5 15.6878 6.57031 15.5706 6.69531Z" fill="#FA207A"/>
<path d="M7.69531 11.1641C7.28125 12.3203 6.9375 13.2812 6.9375 13.3125C6.9375 13.3516 7.64062 13.375 8.5 13.375C9.35938 13.375 10.0625 13.3516 10.0625 13.3125C10.0625 13.2031 8.53906 9.07812 8.5 9.07812C8.47656 9.07812 8.11719 10.0156 7.69531 11.1641Z" fill="#FA207A"/>
<path d="M22.6953 11.1641C22.2812 12.3203 21.9375 13.2812 21.9375 13.3125C21.9375 13.3516 22.6406 13.375 23.5 13.375C24.3594 13.375 25.0625 13.3516 25.0625 13.3125C25.0625 13.2031 23.5391 9.07812 23.5 9.07812C23.4766 9.07812 23.1172 10.0156 22.6953 11.1641Z" fill="#FA207A"/>
<path d="M6.625 14.7502C6.625 15.1174 6.84375 15.5471 7.21094 15.9143C7.78125 16.4924 8.39062 16.633 9.14844 16.3752C9.59375 16.2268 10.1484 15.6486 10.2812 15.1877C10.4609 14.5861 10.5937 14.6252 8.5 14.6252C6.82031 14.6252 6.625 14.6408 6.625 14.7502Z" fill="#FA207A"/>
<path d="M21.625 14.7502C21.625 15.1174 21.8437 15.5471 22.2109 15.9143C22.7812 16.4924 23.3906 16.633 24.1484 16.3752C24.5937 16.2268 25.1484 15.6486 25.2812 15.1877C25.4609 14.5861 25.5937 14.6252 23.5 14.6252C21.8203 14.6252 21.625 14.6408 21.625 14.7502Z" fill="#FA207A"/>
<path d="M14.125 19V19.625H16H17.875V19V18.375H16H14.125V19Z" fill="#FA207A"/>
<path d="M12.875 21.5V22.125H16H19.125V21.5V20.875H16H12.875V21.5Z" fill="#FA207A"/>
<path d="M6.625 29.625V32.75H16H25.375V29.625V26.5H16H6.625V29.625ZM10.375 28.375V29H9.125H7.875V28.375V27.75H9.125H10.375V28.375ZM24.125 28.375V29H17.875H11.625V28.375V27.75H17.875H24.125V28.375ZM24.125 30.875V31.5H16H7.875V30.875V30.25H16H24.125V30.875Z" fill="#FA207A"/>
</svg>
