<svg width="27" height="37" viewBox="0 0 27 37" fill="none" xmlns="http://www.w3.org/2000/svg">
<path d="M2.42461 0.302637C1.95234 0.416895 1.25918 0.820606 0.924023 1.18623C0.756445 1.36904 0.505078 1.7499 0.375586 2.03174L0.131836 2.54209L0.108984 15.4456L0.09375 28.3491L0.39082 28.0749C0.764063 27.7397 1.23633 27.4579 1.81523 27.2446L2.26465 27.0694L14.5893 27.0466L26.9062 27.0313V14.4097C26.9062 4.72822 26.8834 1.72705 26.8148 1.4833C26.693 1.06436 26.0607 0.432131 25.6418 0.310255C25.2533 0.195997 2.90449 0.188379 2.42461 0.302637ZM13.8885 7.67607C14.0561 7.80557 14.0713 7.89697 14.1094 8.61299L14.1475 9.39756L14.5893 9.45088C15.0615 9.51182 15.8537 9.7708 16.9506 10.2278C18.0551 10.7001 19.0529 10.6696 19.7385 10.1593C20.0736 9.91553 20.3859 9.91553 20.6221 10.1593C20.8582 10.3878 20.8658 10.7153 20.6602 10.9819C20.5078 11.1724 19.6623 11.6446 19.4719 11.6446C19.4186 11.6446 19.3576 11.6751 19.3348 11.7056C19.3119 11.7437 19.7766 12.8481 20.3631 14.1659C21.4143 16.512 21.4295 16.5653 21.3914 16.9843C21.2314 18.6905 19.8756 19.8179 18.1465 19.696C17.2857 19.6351 16.7525 19.4065 16.1965 18.8505C15.6709 18.3249 15.4195 17.7841 15.3586 17.0224C15.3129 16.5577 15.3129 16.5577 16.3869 14.1583C17.3086 12.094 17.4381 11.7513 17.3238 11.7132C17.2553 11.6827 16.8211 11.5075 16.3564 11.3171C14.8939 10.7153 14.4902 10.6163 13.5 10.6239C12.4869 10.6239 12.0604 10.7229 10.8797 11.2257C10.4379 11.4161 9.97324 11.5913 9.84375 11.6218C9.71426 11.6446 9.6 11.6903 9.57715 11.7208C9.56191 11.7513 10.0189 12.8481 10.6055 14.1659C11.192 15.4761 11.6719 16.6415 11.6719 16.7634C11.6719 17.5175 11.2377 18.4772 10.6664 18.9952C9.72188 19.8407 8.04609 19.9474 6.92637 19.239C6.28652 18.8276 5.89805 18.2716 5.68477 17.4718C5.49434 16.7634 5.51719 16.672 6.60645 14.2269C7.80234 11.538 7.76426 11.6446 7.59668 11.6446C7.36816 11.6446 6.50742 11.1876 6.34746 10.9819C6.13418 10.7153 6.1418 10.3878 6.37793 10.1593C6.62168 9.90791 6.91113 9.92315 7.31484 10.1974C7.49766 10.3192 7.84043 10.4563 8.07656 10.5097C8.73926 10.6468 9.2877 10.5478 10.2855 10.1288C11.2986 9.70986 11.8014 9.54229 12.2432 9.47373C12.9516 9.36709 12.8906 9.44326 12.8906 8.62822C12.8906 7.96553 12.9059 7.88936 13.0811 7.72178C13.302 7.49326 13.6447 7.47803 13.8885 7.67607ZM14.1094 16.3673V20.9376H15.4424C16.7602 20.9376 16.783 20.9376 16.9658 21.128C17.2324 21.387 17.2248 21.7831 16.9582 21.9964C16.7602 22.1563 16.6764 22.1563 13.5 22.1563C10.3236 22.1563 10.2398 22.1563 10.0418 21.9964C9.75996 21.7755 9.75996 21.3185 10.0418 21.0976C10.2322 20.9528 10.3465 20.9376 11.5652 20.9376H12.8906V16.3673V11.797H13.5H14.1094V16.3673Z" fill="#FA207A"/>
<path d="M7.87852 14.3639C7.49004 15.2398 7.17773 15.9711 7.17773 16.0016C7.17773 16.0396 7.83281 16.0625 8.625 16.0625C9.4248 16.0625 10.0723 16.0396 10.0723 16.0016C10.0723 15.9025 8.6707 12.7871 8.625 12.7871C8.60215 12.7871 8.26699 13.4955 7.87852 14.3639Z" fill="#FA207A"/>
<path d="M17.5984 14.4248L16.8672 16.0625H18.3525C19.7389 16.0625 19.8379 16.0549 19.7922 15.9254C19.6322 15.5064 18.4059 12.7871 18.3678 12.7871C18.3449 12.7871 17.9945 13.526 17.5984 14.4248Z" fill="#FA207A"/>
<path d="M2.42559 28.3339C1.95332 28.4481 1.26016 28.8519 0.925 29.2175C0.757422 29.4003 0.506055 29.7812 0.376563 30.063C0.155664 30.5276 0.132812 30.6419 0.132812 31.3046C0.132812 31.9901 0.148047 32.0587 0.414648 32.6071C0.947852 33.6735 1.83906 34.2524 3.07305 34.3286L3.75098 34.3667V33.1327V31.9063H3.33203C2.82168 31.9063 2.53223 31.6854 2.53223 31.297C2.53223 31.1522 2.60078 30.9923 2.72266 30.878L2.90547 30.6876H13.501H24.0965L24.2793 30.878C24.5307 31.1218 24.5307 31.4722 24.2793 31.7159L24.0965 31.9063H18.1855H12.2822V33.1251V34.3438H18.8025C23.7004 34.3438 25.4066 34.321 25.6428 34.2524C26.0617 34.1306 26.6939 33.4983 26.8158 33.0794C26.8768 32.8661 26.9072 32.0587 26.9072 30.5048V28.2501L14.8188 28.2577C7.83379 28.2653 2.60078 28.2958 2.42559 28.3339Z" fill="#FA207A"/>
<path d="M4.96875 34.1533V36.408L5.15918 36.5908C5.27344 36.7127 5.42578 36.7812 5.58574 36.7812C5.79902 36.7812 5.97422 36.6441 6.92637 35.6996L8.01562 34.618L9.10488 35.6996C10.057 36.6441 10.2322 36.7812 10.4455 36.7812C10.6055 36.7812 10.7578 36.7127 10.8721 36.5908L11.0625 36.408V34.1533V31.9062H8.01562H4.96875V34.1533Z" fill="#FA207A"/>
</svg>
