<svg width="39" height="39" viewBox="0 0 39 39" fill="none" xmlns="http://www.w3.org/2000/svg">
<g clip-path="url(#clip0_42_2263)">
<path d="M25.0215 0.106461C23.6656 0.54064 23.0105 2.04884 23.6428 3.28283C23.8408 3.66369 30.483 12.5149 30.9172 12.9719C31.6027 13.6879 32.6768 13.886 33.5451 13.4442C34.025 13.2004 34.3373 12.8881 34.5963 12.393C34.84 11.9283 34.8477 10.9229 34.5963 10.4354C34.3145 9.85646 27.459 0.830093 27.0781 0.517788C26.4992 0.0455227 25.6994 -0.106821 25.0215 0.106461Z" fill="#FA207A"/>
<path d="M20.9627 4.38726C19.226 4.76051 17.2912 5.69742 15.7221 6.93902C14.5719 7.85308 13.1779 9.52887 12.5686 10.7476L12.3477 11.1818L16.3314 16.4605C20.1096 21.465 20.3305 21.7468 20.5361 21.724C21.3969 21.6402 23.1336 21.008 24.2229 20.3834C26.3328 19.1798 28.3133 17.1841 29.2426 15.3179L29.4559 14.8914L25.5787 9.74976C23.4459 6.92379 21.6406 4.53961 21.5721 4.4482C21.4502 4.29586 21.4197 4.28824 20.9627 4.38726Z" fill="#FA207A"/>
<path d="M8.49302 12.5153C7.83033 12.7819 7.3733 13.2237 7.12955 13.8483C6.90103 14.45 6.9772 15.326 7.30474 15.844C7.76177 16.56 14.2592 25.0989 14.5868 25.4112C15.1047 25.9139 15.577 26.0815 16.3006 26.0358C17.5194 25.9444 18.3725 25.0074 18.3801 23.7506C18.3801 23.3545 18.3344 23.1565 18.1821 22.8365C18.0145 22.5166 11.3038 13.5207 10.8391 13.0104C10.7706 12.9342 10.5116 12.7742 10.2602 12.6448C9.87173 12.4543 9.71939 12.4162 9.26236 12.4239C8.96529 12.4239 8.62252 12.4696 8.49302 12.5153Z" fill="#FA207A"/>
<path d="M28.1303 20.3303C27.4447 20.9854 26.5307 21.6785 25.7309 22.1355C25.4414 22.2955 25.2129 22.4555 25.2129 22.4859C25.2129 22.524 25.5328 22.9811 25.9289 23.499L26.6449 24.4512L28.4426 23.0953C29.4252 22.3564 30.2402 21.7242 30.2402 21.6861C30.2402 21.6176 28.8463 19.7361 28.793 19.7361C28.7701 19.7361 28.473 20.0027 28.1303 20.3303Z" fill="#FA207A"/>
<path d="M29.8448 24.8932C28.8545 25.632 28.0471 26.2643 28.0547 26.2947C28.0852 26.4242 34.7274 35.184 35.0626 35.542C35.5348 36.0524 36.0299 36.2733 36.7079 36.2733C37.3934 36.2809 37.9038 36.0524 38.3836 35.5344C39.0387 34.8108 39.1682 33.8967 38.7417 33.0283C38.5893 32.7313 32.0004 23.8953 31.711 23.6059C31.6729 23.5678 30.835 24.1467 29.8448 24.8932Z" fill="#FA207A"/>
<path d="M4.875 29.7908C3.6791 30.027 2.58984 31.1391 2.36133 32.3654C2.32324 32.5863 2.28516 33.1195 2.28516 33.5461V34.323L1.84336 34.4145C1.0207 34.582 0.342773 35.199 0.114258 35.9836C0.0457031 36.2197 0 36.692 0 37.2252C0 38.2688 0.121875 38.6039 0.609375 38.8477C0.906445 39 1.03594 39 11.502 39C21.968 39 22.0975 39 22.3945 38.8477C22.882 38.6039 23.0039 38.2688 23.0039 37.2252C23.0039 36.692 22.9582 36.2197 22.8896 35.9836C22.6611 35.2066 21.9832 34.582 21.1758 34.4145L20.734 34.3307L20.7035 33.2947C20.673 32.4797 20.6273 32.1674 20.4979 31.8398C20.1779 31.0096 19.4391 30.2631 18.5859 29.9127L18.167 29.7451L11.6924 29.7299C8.13516 29.7299 5.06543 29.7527 4.875 29.7908Z" fill="#FA207A"/>
</g>
<defs>
<clipPath id="clip0_42_2263">
<rect width="39" height="39" fill="white"/>
</clipPath>
</defs>
</svg>
