<svg width="37" height="37" viewBox="0 0 37 37" fill="none" xmlns="http://www.w3.org/2000/svg">
<g clip-path="url(#clip0_42_2271)">
<path d="M17.4162 1.11289V2.21856L16.9104 2.30527C15.335 2.56543 14.1137 3.18691 11.6783 4.97187C9.25019 6.75684 7.7543 7.52285 5.60801 8.09375C4.22773 8.46231 2.01641 8.74414 0.527734 8.74414H0.000195311V9.84258V10.9338L1.90078 10.8832C2.94141 10.8543 4.19883 10.8037 4.69746 10.7676C5.18887 10.7314 5.60801 10.717 5.62246 10.7314C5.63691 10.7459 4.94316 13.2318 4.07598 16.2525L2.50781 21.752H1.24316H-0.0214844L0.0146484 22.7059C0.0435547 23.4863 0.0869141 23.7537 0.231445 24.1439C0.715625 25.452 1.66953 26.4637 3.14375 27.2152C5.98379 28.6822 10.0018 28.5666 12.6467 26.9406C13.5139 26.4131 14.3377 25.5676 14.7279 24.8016C15.1109 24.0717 15.2482 23.4646 15.2482 22.4891V21.752H14.027H12.8129L11.1725 15.9996C10.2619 12.8416 9.53926 10.24 9.55371 10.2328C9.56094 10.2184 9.87168 10.1533 10.2258 10.0883C10.5871 10.016 11.541 9.79922 12.3576 9.61133C14.7279 9.04766 16.1082 8.81641 17.026 8.81641H17.4162V19.9092V31.002L12.9213 34.001L8.41914 37H18.5002H28.5812L24.0791 34.001L19.5842 31.002V19.8947V8.79473L20.3285 8.83809C21.3908 8.91035 22.5832 9.11992 24.6572 9.6041C25.6617 9.84258 26.6951 10.0738 26.9553 10.1244C27.2154 10.175 27.4395 10.2184 27.4467 10.2328C27.4611 10.24 26.7385 12.8416 25.8279 15.9996L24.1875 21.752H22.9734H21.7521V22.4891C21.7521 23.4646 21.8895 24.0717 22.2725 24.8016C23.3998 26.984 26.5289 28.4004 29.8459 28.227C33.2641 28.0535 35.8945 26.507 36.7689 24.1512C36.9135 23.7537 36.9568 23.4936 36.9857 22.7059L37.0219 21.752H35.7572H34.4926L32.9244 16.2525C32.0572 13.2318 31.3635 10.7459 31.3779 10.7314C31.3924 10.717 31.8115 10.7314 32.3029 10.7676C32.8016 10.8037 34.059 10.8543 35.1068 10.8832L37.0002 10.9338V9.84258V8.74414H36.4654C35.143 8.74414 33.1412 8.51289 31.8332 8.20215C29.4846 7.6457 27.8586 6.84355 25.3871 5.01523C22.9951 3.24472 21.6654 2.56543 20.09 2.30527L19.5842 2.21856V1.11289V0H18.5002H17.4162V1.11289ZM9.09844 16.6428C9.87168 19.3527 10.5148 21.6146 10.5365 21.658C10.5582 21.7303 9.95117 21.752 7.66035 21.752C5.36953 21.752 4.7625 21.7303 4.78418 21.658C4.80586 21.6146 5.44902 19.3527 6.22227 16.6428C6.99551 13.9256 7.63867 11.707 7.66035 11.707C7.68203 11.707 8.3252 13.9256 9.09844 16.6428ZM30.7781 16.6428C31.5514 19.3527 32.1945 21.6146 32.2162 21.658C32.2379 21.7303 31.6309 21.752 29.34 21.752C27.0492 21.752 26.4422 21.7303 26.4639 21.658C26.4855 21.6146 27.1287 19.3527 27.902 16.6428C28.6752 13.9256 29.3184 11.707 29.34 11.707C29.3617 11.707 30.0049 13.9256 30.7781 16.6428Z" fill="#FA207A"/>
</g>
<defs>
<clipPath id="clip0_42_2271">
<rect width="37" height="37" rx="6" fill="white"/>
</clipPath>
</defs>
</svg>
