<svg width="46" height="37" viewBox="0 0 46 37" fill="none" xmlns="http://www.w3.org/2000/svg">
<path d="M5.46289 36.2578C4.22539 36.2578 3.16639 35.8176 2.28589 34.9371C1.40389 34.0551 0.962891 32.9953 0.962891 31.7578V4.75781C0.962891 3.52031 1.40389 2.46131 2.28589 1.58081C3.16639 0.698812 4.22539 0.257812 5.46289 0.257812H41.4629C42.7004 0.257812 43.7601 0.698812 44.6421 1.58081C45.5226 2.46131 45.9629 3.52031 45.9629 4.75781V31.7578C45.9629 32.9953 45.5226 34.0551 44.6421 34.9371C43.7601 35.8176 42.7004 36.2578 41.4629 36.2578H5.46289ZM23.4629 20.5078L5.46289 9.25781V31.7578H41.4629V9.25781L23.4629 20.5078ZM23.4629 16.0078L41.4629 4.75781H5.46289L23.4629 16.0078ZM5.46289 9.25781V4.75781V31.7578V9.25781Z" fill="white"/>
</svg>
