<svg width="37" height="37" viewBox="0 0 37 37" fill="none" xmlns="http://www.w3.org/2000/svg">
<path d="M8.42178 3.04775C8.28895 2.87688 8.12129 2.73624 7.92993 2.63515C7.73857 2.53407 7.5279 2.47485 7.3119 2.46145C7.09589 2.44804 6.87951 2.48074 6.67712 2.55739C6.47473 2.63404 6.29096 2.75287 6.13803 2.906L3.81153 5.23475C2.72478 6.32375 2.32428 7.865 2.79903 9.21725C4.76944 14.8143 7.97469 19.896 12.177 24.0852C16.3664 28.2875 21.448 31.4928 27.045 33.4632C28.3973 33.938 29.9385 33.5375 31.0275 32.4507L33.354 30.1242C33.5072 29.9713 33.626 29.7875 33.7026 29.5852C33.7793 29.3828 33.812 29.1664 33.7986 28.9504C33.7852 28.7344 33.726 28.5237 33.6249 28.3323C33.5238 28.141 33.3831 27.9733 33.2123 27.8405L28.0215 23.804C27.839 23.6624 27.6267 23.5641 27.4006 23.5166C27.1745 23.469 26.9406 23.4735 26.7165 23.5295L21.789 24.7602C21.1313 24.9246 20.4422 24.9159 19.7889 24.7349C19.1355 24.5539 18.5402 24.2069 18.0608 23.7275L12.5348 18.1992C12.055 17.7201 11.7075 17.1248 11.5261 16.4715C11.3448 15.8181 11.3357 15.1289 11.4998 14.471L12.7328 9.5435C12.7888 9.31939 12.7932 9.08547 12.7457 8.85941C12.6981 8.63335 12.5999 8.42104 12.4583 8.2385L8.42178 3.04775ZM4.43928 1.2095C4.83302 0.815632 5.30604 0.510039 5.82694 0.313009C6.34784 0.115978 6.9047 0.0320185 7.46054 0.0667051C8.01637 0.101392 8.55847 0.253931 9.05084 0.514193C9.5432 0.774456 9.97456 1.13649 10.3163 1.57625L14.3528 6.76475C15.093 7.7165 15.354 8.95625 15.0615 10.1262L13.8308 15.0537C13.7671 15.309 13.7706 15.5763 13.8408 15.8298C13.9109 16.0833 14.0455 16.3143 14.2313 16.5005L19.7595 22.0287C19.9459 22.2149 20.1773 22.3497 20.4313 22.4199C20.6852 22.4901 20.953 22.4933 21.2085 22.4292L26.1338 21.1985C26.7112 21.0541 27.3138 21.0429 27.8962 21.1657C28.4785 21.2885 29.0253 21.5421 29.4953 21.9072L34.6838 25.9437C36.549 27.395 36.72 30.1512 35.0505 31.8185L32.724 34.145C31.059 35.81 28.5705 36.5412 26.2508 35.7245C20.3134 33.6354 14.9226 30.2364 10.4783 25.7795C6.02168 21.3358 2.62265 15.9458 0.533278 10.0092C-0.281222 7.69175 0.450028 5.201 2.11503 3.536L4.44153 1.2095H4.43928Z" fill="white"/>
</svg>
