<svg width="27" height="28" viewBox="0 0 27 28" fill="none" xmlns="http://www.w3.org/2000/svg">
<path d="M12.5254 2.98193C17.9074 2.98193 22.2754 7.51793 22.2754 13.1069C22.2754 18.6959 17.9074 23.2319 12.5254 23.2319C7.14339 23.2319 2.77539 18.6959 2.77539 13.1069C2.77539 7.51793 7.14339 2.98193 12.5254 2.98193ZM12.5254 20.9819C16.7146 20.9819 20.1087 17.4573 20.1087 13.1069C20.1087 8.75543 16.7146 5.23193 12.5254 5.23193C8.33506 5.23193 4.94206 8.75543 4.94206 13.1069C4.94206 17.4573 8.33506 20.9819 12.5254 20.9819ZM21.7175 21.0618L24.7822 24.2433L23.2493 25.8352L20.1856 22.6526L21.7175 21.0618Z" fill="white"/>
</svg>
