<svg width="268" height="91" viewBox="0 0 268 91" fill="none" xmlns="http://www.w3.org/2000/svg">
<g clip-path="url(#clip0_50_2187)">
<path d="M111.904 11.1543H125.384V14.4321H115.667V18.9006H123.293V22.1784H115.667V30.1768H111.904V11.1543ZM125.627 23.4393C125.641 19.3345 128.541 16.4491 132.513 16.4491C136.194 16.4491 138.995 18.9287 138.995 23.0047C138.995 23.4948 138.954 23.9995 138.87 24.5317H129.195C129.461 26.1148 131.064 27.2212 132.764 27.2212C134.089 27.2212 135.232 26.6048 136.096 25.3299L138.634 27.2352C137.379 29.3364 135.037 30.4709 132.681 30.4709C128.387 30.4709 125.627 27.3609 125.627 23.4393H125.627ZM135.664 22.1223C135.483 20.6234 134.256 19.4749 132.555 19.4749C130.785 19.4749 129.447 20.5953 129.251 22.1223H135.664ZM147.325 16.4491C149.471 16.4491 150.852 17.2333 151.744 18.3544V10.4536H155.257V30.1768H151.744L151.674 28.7481C150.782 29.7843 149.29 30.4569 147.325 30.4569C143.532 30.4569 140.842 27.5013 140.842 23.4393C140.842 19.3485 143.532 16.4491 147.325 16.4491V16.4491ZM144.439 23.4253C144.439 25.5538 145.93 27.2352 148.063 27.2352C150.168 27.2352 151.702 25.5538 151.702 23.4253C151.702 21.2819 150.168 19.6707 148.063 19.6707C145.93 19.6707 144.439 21.2538 144.439 23.4253ZM158.05 23.4393C158.064 19.3345 160.964 16.4491 164.936 16.4491C168.617 16.4491 171.418 18.9287 171.418 23.0047C171.418 23.4948 171.377 23.9995 171.293 24.5317H161.618C161.884 26.1148 163.487 27.2212 165.187 27.2212C166.512 27.2212 167.655 26.6048 168.519 25.3299L171.057 27.2352C169.802 29.3364 167.46 30.4709 165.104 30.4709C160.81 30.4709 158.05 27.3609 158.05 23.4393H158.05ZM168.087 22.1223C167.906 20.6234 166.679 19.4749 164.978 19.4749C163.208 19.4749 161.87 20.5953 161.674 22.1223H168.087ZM174.227 16.7292H177.685L177.754 18.5643C178.437 17.1637 179.734 16.4491 181.239 16.4491C182.034 16.4491 182.703 16.659 182.982 16.7573L182.703 19.9649C182.34 19.8392 181.755 19.6567 181.044 19.6567C179.469 19.6567 177.81 20.5111 177.81 23.2848V30.1768H174.227V16.7292ZM183.824 26.3247C183.824 23.7889 186.138 22.024 189.693 22.024C190.613 22.024 191.645 22.1784 192.509 22.4866V22.1784C192.509 20.6936 191.31 19.6146 189.61 19.6146C188.062 19.6146 186.947 20.3714 186.069 21.31L184.02 19.2509C184.925 18.0736 186.905 16.4491 189.721 16.4491C193.638 16.4491 196.078 18.5362 196.078 21.8983V30.1768H192.676V28.6779C191.952 29.7703 190.571 30.4569 188.885 30.4569C185.846 30.4569 183.824 28.8183 183.824 26.3247H183.824ZM187.212 26.1288C187.212 27.1369 188.076 27.7814 189.442 27.7814C191.157 27.7814 192.509 26.6329 192.509 24.9382C191.854 24.644 191.004 24.4193 189.945 24.4193C188.313 24.4193 187.212 25.1059 187.212 26.1288ZM197.923 19.7129V16.7292H200.196V12.4144H203.667V16.7292H207.682V19.7129H203.751V25.2456C203.751 26.6469 204.531 27.2633 205.73 27.2633C206.399 27.2633 207.25 27.1089 208.003 26.8007L208.337 29.7843C207.514 30.1908 206.19 30.4569 205.103 30.4569C202.161 30.4569 200.182 28.93 200.182 25.7645V19.7129H197.923ZM212.247 10.3413C213.46 10.3413 214.31 11.1824 214.31 12.4144C214.31 13.6332 213.46 14.4742 212.247 14.4742C211.034 14.4742 210.198 13.6332 210.198 12.4144C210.198 11.1964 211.034 10.3413 212.247 10.3413ZM210.477 30.1768V16.7292H214.059V30.1768H210.477ZM216.839 23.4526C216.839 19.4889 219.892 16.4491 223.991 16.4491C228.104 16.4491 231.142 19.4889 231.142 23.4526C231.142 27.4311 228.104 30.4569 223.991 30.4569C219.892 30.4569 216.839 27.4311 216.839 23.4526ZM223.991 27.2071C226.096 27.2071 227.587 25.61 227.587 23.4526C227.587 21.31 226.096 19.7129 223.991 19.7129C221.9 19.7129 220.395 21.31 220.395 23.4526C220.395 25.61 221.9 27.2071 223.991 27.2071ZM233.923 30.1768V16.7292H237.324L237.394 18.2842C238.091 17.3456 239.527 16.4491 241.52 16.4491C244.615 16.4491 246.804 18.4941 246.804 21.7298V30.1768H243.235V22.6544C243.235 20.7912 242.036 19.7831 240.461 19.7831C238.885 19.7831 237.491 20.7912 237.491 22.6544V30.1768H233.923ZM252.211 22.3174C252.211 20.0077 253.99 18.2365 256.378 18.2365C258.774 18.2365 260.544 20.0077 260.544 22.3174C260.544 24.6349 258.774 26.3984 256.378 26.3984C253.99 26.3984 252.211 24.6349 252.211 22.3174ZM256.378 24.5043C257.604 24.5043 258.473 23.5741 258.473 22.3174C258.473 21.0685 257.604 20.1383 256.378 20.1383C255.16 20.1383 254.282 21.0685 254.282 22.3174C254.282 23.5741 255.16 24.5043 256.378 24.5043ZM261.146 20.1383V18.4H262.535V17.6327C262.535 15.919 263.608 14.5802 265.751 14.5802C266.393 14.5802 266.848 14.7277 267.229 14.8582L267.01 16.5719C266.694 16.4329 266.337 16.3761 265.971 16.3761C265.159 16.3761 264.549 16.7432 264.549 17.7556V18.4H266.775V20.1383H264.606V26.2348H262.519V20.1383H261.146V20.1383ZM251.602 29.7057V28.4807H266.799V29.7057H251.602ZM110.677 44.5518C110.677 38.7943 114.859 34.7183 120.589 34.7183C126.346 34.7183 130.514 38.8084 130.514 44.5518C130.514 50.2945 126.346 54.301 120.589 54.301C114.859 54.301 110.677 50.2945 110.677 44.5518ZM120.603 50.7852C124.143 50.7852 126.652 48.2635 126.652 44.5377C126.652 40.8394 124.143 38.2482 120.603 38.2482C117.09 38.2482 114.552 40.8394 114.552 44.5377C114.552 48.2635 117.104 50.7852 120.603 50.7852ZM133.391 54.0209V40.5733H136.793L136.862 42.1283C137.559 41.1897 138.995 40.2932 140.989 40.2932C144.083 40.2932 146.272 42.3383 146.272 45.574V54.0209H142.703V46.4985C142.703 44.6353 141.504 43.6272 139.929 43.6272C138.353 43.6272 136.96 44.6353 136.96 46.4985V54.0209H133.391H133.391ZM148.118 43.557V40.5733H150.391V36.2586H153.862V40.5733H157.877V43.557H153.946V49.0898C153.946 50.4911 154.726 51.1074 155.925 51.1074C156.594 51.1074 157.445 50.953 158.198 50.6448L158.532 53.6285C157.71 54.035 156.386 54.301 155.298 54.301C152.356 54.301 150.377 52.7741 150.377 49.6086V43.557H148.118ZM159.779 50.1688C159.779 47.633 162.093 45.8681 165.648 45.8681C166.568 45.8681 167.6 46.0226 168.464 46.3308V46.0226C168.464 44.5377 167.265 43.4587 165.564 43.4587C164.017 43.4587 162.902 44.2155 162.024 45.1541L159.974 43.095C160.88 41.9177 162.86 40.2932 165.676 40.2932C169.593 40.2932 172.033 42.3804 172.033 45.7424V54.0209H168.631V52.5221C167.906 53.6144 166.526 54.301 164.839 54.301C161.8 54.301 159.779 52.6625 159.779 50.1688ZM163.167 49.9729C163.167 50.9811 164.031 51.6256 165.397 51.6256C167.111 51.6256 168.464 50.477 168.464 48.7823C167.809 48.4881 166.958 48.2635 165.899 48.2635C164.268 48.2635 163.167 48.9501 163.167 49.9729ZM175.622 40.5733H179.079L179.148 42.4084C179.832 41.0079 181.128 40.2932 182.634 40.2932C183.428 40.2932 184.098 40.5031 184.376 40.6014L184.098 43.809C183.735 43.6834 183.15 43.5008 182.438 43.5008C180.864 43.5008 179.204 44.3552 179.204 47.129V54.0209H175.622V40.5733ZM188.299 34.1854C189.512 34.1854 190.362 35.0265 190.362 36.2586C190.362 37.4773 189.512 38.3184 188.299 38.3184C187.086 38.3184 186.25 37.4773 186.25 36.2586C186.25 35.0405 187.086 34.1854 188.299 34.1854ZM186.529 54.0209V40.5733H190.112V54.0209H186.529ZM192.892 47.2968C192.892 43.333 195.945 40.2932 200.044 40.2932C204.157 40.2932 207.195 43.333 207.195 47.2968C207.195 51.2752 204.157 54.301 200.044 54.301C195.945 54.301 192.892 51.2752 192.892 47.2968ZM200.044 51.0513C202.149 51.0513 203.64 49.4541 203.64 47.2968C203.64 45.1541 202.149 43.557 200.044 43.557C197.953 43.557 196.448 45.1541 196.448 47.2968C196.448 49.4541 197.953 51.0513 200.044 51.0513ZM230.935 54.0209H216.98V34.9984H220.744V50.7571H230.935V54.0209ZM232.154 50.1688C232.154 47.633 234.468 45.8681 238.022 45.8681C238.942 45.8681 239.974 46.0226 240.839 46.3308V46.0226C240.839 44.5377 239.64 43.4587 237.939 43.4587C236.392 43.4587 235.277 44.2155 234.398 45.1541L232.349 43.095C233.255 41.9177 235.235 40.2932 238.05 40.2932C241.968 40.2932 244.407 42.3804 244.407 45.7424V54.0209H241.006V52.5221C240.281 53.6144 238.901 54.301 237.214 54.301C234.175 54.301 232.154 52.6625 232.154 50.1688ZM235.541 49.9729C235.541 50.9811 236.406 51.6256 237.771 51.6256C239.486 51.6256 240.839 50.477 240.839 48.7823C240.183 48.4881 239.333 48.2635 238.274 48.2635C236.642 48.2635 235.541 48.9501 235.541 49.9729ZM246.42 40.5733H250.115L252.749 50.3647L255.621 40.7832H258.8L261.657 50.3647L264.306 40.5733H268L264.055 54.0209H259.608L257.21 45.8681L254.812 54.0209H250.365L246.42 40.5733ZM109.59 77.865L117.229 58.8425H121.551L129.204 77.865H125.189L123.795 74.1386H115.013L113.604 77.865H109.59H109.59ZM122.708 71.1276L119.404 62.7922L116.072 71.1276H122.708ZM131.618 73.0743C132.427 74.3352 133.793 75.1474 135.145 75.1474C136.218 75.1474 137.055 74.7269 137.055 73.9708C137.055 73.2561 136.344 73.0041 134.713 72.6398C131.785 71.9819 129.722 71.0433 129.722 68.2836C129.722 65.7619 132.036 64.1373 134.95 64.1373C137.668 64.1373 139.355 65.4817 140.317 66.9392L138.031 68.8298C137.445 67.8912 136.455 67.1631 135.033 67.1631C133.876 67.1631 133.082 67.5689 133.082 68.2415C133.082 68.9702 133.932 69.2082 135.591 69.6147C138.574 70.3427 140.47 71.3094 140.47 73.9708C140.47 76.5066 138.045 78.1452 135.187 78.1452C132.552 78.1452 130.433 76.9264 129.221 75.0218L131.618 73.0743H131.618ZM144.557 73.0743C145.366 74.3352 146.732 75.1474 148.084 75.1474C149.157 75.1474 149.994 74.7269 149.994 73.9708C149.994 73.2561 149.283 73.0041 147.652 72.6398C144.724 71.9819 142.661 71.0433 142.661 68.2836C142.661 65.7619 144.975 64.1373 147.889 64.1373C150.607 64.1373 152.294 65.4817 153.256 66.9392L150.97 68.8298C150.384 67.8912 149.394 67.1631 147.972 67.1631C146.815 67.1631 146.021 67.5689 146.021 68.2415C146.021 68.9702 146.871 69.2082 148.53 69.6147C151.513 70.3427 153.409 71.3094 153.409 73.9708C153.409 76.5066 150.984 78.1452 148.126 78.1452C145.491 78.1452 143.372 76.9264 142.16 75.0218L144.557 73.0743H144.557ZM154.569 71.1409C154.569 67.1772 157.622 64.1373 161.72 64.1373C165.833 64.1373 168.872 67.1772 168.872 71.1409C168.872 75.1194 165.833 78.1452 161.72 78.1452C157.622 78.1452 154.569 75.1194 154.569 71.1409ZM161.72 74.8954C163.825 74.8954 165.317 73.2983 165.317 71.1409C165.317 68.9983 163.825 67.4011 161.72 67.4011C159.629 67.4011 158.124 68.9983 158.124 71.1409C158.124 73.2983 159.629 74.8954 161.72 74.8954ZM170.491 71.1135C170.491 67.1772 173.656 64.0952 177.628 64.0952C180.138 64.0952 182.619 65.4122 183.846 67.9333L181.128 69.6701C180.347 68.1158 178.981 67.4011 177.684 67.4011C175.538 67.4011 174.046 69.0537 174.046 71.183C174.046 73.2702 175.579 74.8954 177.628 74.8954C179.078 74.8954 180.291 74.2088 181.197 72.5703L183.776 74.3913C182.549 76.8422 180.054 78.1452 177.545 78.1452C173.53 78.1452 170.491 75.0351 170.491 71.1135V71.1135ZM187.96 58.0296C189.173 58.0296 190.024 58.8706 190.024 60.1027C190.024 61.3214 189.173 62.1625 187.96 62.1625C186.748 62.1625 185.911 61.3214 185.911 60.1027C185.911 58.8847 186.748 58.0296 187.96 58.0296ZM186.19 77.8651V64.4175H189.773V77.8651H186.19ZM192.48 74.013C192.48 71.4772 194.794 69.7122 198.349 69.7122C199.269 69.7122 200.301 69.8667 201.165 70.1749V69.8667C201.165 68.3819 199.966 67.3028 198.266 67.3028C196.718 67.3028 195.603 68.0596 194.725 68.9983L192.675 66.9392C193.581 65.7619 195.561 64.1373 198.377 64.1373C202.294 64.1373 204.734 66.2245 204.734 69.5866V77.8651H201.332V76.3662C200.607 77.4586 199.227 78.1452 197.54 78.1452C194.501 78.1452 192.48 76.5066 192.48 74.013ZM195.868 73.8171C195.868 74.8252 196.732 75.4697 198.098 75.4697C199.812 75.4697 201.165 74.3211 201.165 72.6264C200.51 72.3323 199.659 72.1076 198.6 72.1076C196.969 72.1076 195.868 72.7942 195.868 73.8171ZM206.408 67.4011V64.4175H208.681V60.1027H212.152V64.4175H216.167V67.4011H212.236V72.9339C212.236 74.3352 213.016 74.9516 214.215 74.9516C214.884 74.9516 215.735 74.7971 216.488 74.4889L216.822 77.4726C215.999 77.8791 214.675 78.1452 213.588 78.1452C210.646 78.1452 208.667 76.6182 208.667 73.4527V67.4011H206.408ZM220.56 58.0296C221.773 58.0296 222.623 58.8706 222.623 60.1027C222.623 61.3214 221.773 62.1625 220.56 62.1625C219.347 62.1625 218.511 61.3214 218.511 60.1027C218.511 58.8847 219.347 58.0296 220.56 58.0296ZM218.79 77.865V64.4174H222.373V77.865H218.79ZM224.411 71.1409C224.411 67.1772 227.464 64.1373 231.563 64.1373C235.676 64.1373 238.714 67.1772 238.714 71.1409C238.714 75.1194 235.676 78.1452 231.563 78.1452C227.464 78.1452 224.411 75.1194 224.411 71.1409ZM231.563 74.8954C233.668 74.8954 235.159 73.2983 235.159 71.1409C235.159 68.9983 233.668 67.4011 231.563 67.4011C229.472 67.4011 227.967 68.9983 227.967 71.1409C227.967 73.2983 229.472 74.8954 231.563 74.8954ZM240.752 77.865V64.4174H244.154L244.223 65.9725C244.92 65.0338 246.356 64.1373 248.35 64.1373C251.444 64.1373 253.633 66.1824 253.633 69.4181V77.865H250.064V70.3427C250.064 68.4795 248.865 67.4713 247.29 67.4713C245.714 67.4713 244.321 68.4795 244.321 70.3427V77.865H240.752ZM257.846 73.0743C258.654 74.3352 260.02 75.1474 261.373 75.1474C262.446 75.1474 263.282 74.7269 263.282 73.9708C263.282 73.2561 262.572 73.0041 260.94 72.6398C258.013 71.9819 255.95 71.0433 255.95 68.2836C255.95 65.7619 258.264 64.1373 261.177 64.1373C263.895 64.1373 265.583 65.4817 266.544 66.9392L264.258 68.8298C263.673 67.8912 262.683 67.1631 261.261 67.1631C260.104 67.1631 259.31 67.5689 259.31 68.2415C259.31 68.9702 260.16 69.2082 261.818 69.6147C264.802 70.3427 266.698 71.3094 266.698 73.9708C266.698 76.5066 264.272 78.1452 261.415 78.1452C258.779 78.1452 256.661 76.9264 255.448 75.0218L257.846 73.0743Z" fill="white"/>
<path d="M20.1106 7.33727C25.6948 3.55735 32.1598 0.992361 39.1302 0.0113349C39.1866 0.00339114 39.2451 0.0183009 39.2908 0.0525704C40.2153 0.746206 41.1155 1.47379 41.9876 2.23578C42.0746 2.31173 42.0816 2.44435 42.0036 2.52953C39.8496 4.88166 37.8983 7.45315 36.1811 10.2267C33.9586 13.8163 32.2116 17.6095 30.9458 21.5298C30.9221 21.6031 30.8595 21.6543 30.7832 21.6631C29.5005 21.8112 28.2303 22.0762 26.9861 22.4581L20.2899 24.5195C20.171 24.5561 20.0443 24.4791 20.0219 24.3561C19.0051 18.7873 18.9998 13.0611 20.0176 7.48009C20.0282 7.4222 20.062 7.37015 20.1105 7.33727L20.1106 7.33727ZM40.1262 12.6932C38.3948 15.4895 36.9859 18.4233 35.8929 21.4478C35.8485 21.5706 35.9295 21.7009 36.0583 21.7185C39.4582 22.182 42.6578 23.4648 45.3849 25.4453C45.4529 25.4947 45.5418 25.4947 45.6099 25.4453C48.3341 23.4669 51.5303 22.1847 54.9263 21.72C55.0551 21.7024 55.1359 21.5709 55.0918 21.448C52.9641 15.5174 49.713 10.2362 45.6393 5.79923C45.5559 5.70837 45.4088 5.70857 45.3258 5.79977C43.4047 7.9098 41.6622 10.2123 40.1262 12.6932L40.1262 12.6932ZM19.818 42.7854C19.8665 42.7253 19.8754 42.6441 19.841 42.5749C19.0976 41.0776 18.5264 39.4887 18.1468 37.8377L16.6233 31.1894C16.5955 31.0683 16.4676 30.9965 16.3508 31.0373C10.53 33.0675 5.04572 36.2935 0.283471 40.7017C0.243901 40.7384 0.218532 40.789 0.213374 40.8428C0.0732375 42.3036 0 43.7841 0 45.2818C0 48.71 0.377842 52.0493 1.08984 55.262C1.10248 55.319 1.13811 55.369 1.18752 55.3998C4.16292 57.2524 7.30613 58.7396 10.5536 59.8521C10.6628 59.8895 10.7807 59.828 10.8148 59.7172C12.7051 53.566 15.7474 47.8351 19.818 42.7854L19.818 42.7854ZM31.9939 61.6145C30.451 58.6775 29.5807 55.4672 29.4838 52.263C29.4816 52.1913 29.448 52.1324 29.3842 52.1002C27.3489 51.0742 23.6025 47.7738 22.7537 46.9489C22.6642 46.862 22.5251 46.8819 22.4502 46.9817C19.2722 51.2145 16.8601 55.9317 15.2969 60.9606C15.2601 61.079 15.3347 61.2084 15.4552 61.2353C20.832 62.435 26.3881 62.6634 31.8422 61.9157C31.9833 61.8963 32.0604 61.7411 31.9939 61.6145H31.9939ZM77.7788 73.3522C77.6964 70.8406 77.415 68.3669 76.9481 65.9469C76.9262 65.8332 76.8155 65.7612 76.703 65.7866C73.5908 66.4885 70.3903 66.9025 67.1325 67.0104C66.5588 67.0293 65.9854 67.0389 65.4142 67.0389C62.2222 67.0389 59.0731 66.7368 55.9951 66.1569C55.9274 66.1442 55.8597 66.1674 55.8138 66.2191C55.3463 66.7451 54.8528 67.2531 54.3334 67.7401L49.4582 72.303C49.3673 72.3881 49.3705 72.5361 49.4653 72.6168C55.638 77.8715 63.1307 81.4716 71.185 82.9405C71.2413 82.9508 71.3005 82.938 71.3476 82.9053C73.6121 81.3313 75.7288 79.5579 77.6698 77.6074C77.7076 77.5694 77.7303 77.5183 77.7332 77.4647C77.8065 76.1029 77.824 74.7314 77.7788 73.3522V73.3522ZM3.25852 62.2982C4.57858 65.6036 6.27187 68.7176 8.28578 71.5886C8.39709 71.7473 8.64448 71.6732 8.6572 71.4794C8.80885 69.1693 9.11208 66.8907 9.5613 64.6553C9.58118 64.5565 9.52582 64.4612 9.43054 64.4294C7.41594 63.7569 5.4495 62.9566 3.5395 62.0356C3.37078 61.9543 3.18883 62.1237 3.25853 62.2982L3.25852 62.2982ZM36.6589 67.7376C36.1403 67.2514 35.6475 66.7442 35.1807 66.2189C35.1349 66.1673 35.0671 66.1441 34.9994 66.1568C31.9214 66.7368 28.7725 67.0389 25.5807 67.0389C25.0088 67.0389 24.4369 67.0293 23.8625 67.0104C20.6046 66.9025 17.4041 66.4885 14.2918 65.7865C14.1794 65.7612 14.0687 65.8332 14.0467 65.9469C13.5798 68.3669 13.2985 70.8406 13.2161 73.3522C13.1709 74.7314 13.1884 76.1028 13.2616 77.4646C13.2645 77.5182 13.2873 77.5693 13.3251 77.6073C15.2672 79.5589 17.3851 81.3332 19.651 82.9078C19.6975 82.9401 19.7552 82.9528 19.8108 82.9427C20.5756 82.8041 21.3409 82.6479 22.1061 82.4689C29.5245 80.7326 36.1048 77.276 41.5374 72.6231C41.6319 72.5423 41.6345 72.3946 41.5437 72.3096L36.6589 67.7376L36.6589 67.7376ZM15.4701 26.3731C15.5657 26.3412 15.6214 26.2453 15.6014 26.1461C15.0413 23.3584 14.7078 20.5037 14.6126 17.604C14.552 15.7561 14.5893 13.9201 14.7217 12.1019C14.7353 11.9144 14.5124 11.8062 14.376 11.9348C8.36943 17.5972 3.89389 24.879 1.6386 33.0873C1.5871 33.2748 1.80093 33.4222 1.95805 33.3087C6.10349 30.3144 10.6508 27.9818 15.4701 26.3731H15.4701ZM75.6983 60.9618C74.1352 55.9324 71.723 51.2149 68.5448 46.9817C68.4698 46.8819 68.3307 46.862 68.2413 46.9489C67.3924 47.7738 63.646 51.0742 61.6108 52.1002C61.547 52.1324 61.5133 52.1913 61.5112 52.263C61.4142 55.4667 60.5439 58.6768 59.0008 61.6141C58.9345 61.7404 59.0111 61.895 59.152 61.9144C61.239 62.2014 63.3407 62.3476 65.4419 62.3476C68.8326 62.3478 72.2209 61.9762 75.5407 61.2355C75.6609 61.2087 75.735 61.0799 75.6983 60.9618ZM64.9167 86.6361C65.0867 86.5554 65.0656 86.3067 64.8854 86.2526C60.5807 84.9608 56.42 83.0837 52.5018 80.6342C50.0503 79.1015 47.7568 77.384 45.6343 75.5026C45.5587 75.4356 45.4483 75.4361 45.373 75.5033C39.8527 80.4325 33.3006 84.0944 26.0794 86.2359C25.8988 86.2895 25.8755 86.5394 26.0457 86.6204C31.9438 89.4278 38.5376 91 45.4975 91C52.4445 91 59.027 89.4338 64.9167 86.6361ZM60.0252 21.5261C60.0488 21.6 60.112 21.6521 60.1887 21.6609C61.4796 21.8085 62.7586 22.0743 64.0123 22.4592L70.705 24.5195C70.824 24.5561 70.9506 24.4791 70.9731 24.3562C71.9899 18.7874 71.9953 13.0612 70.9775 7.4802C70.9669 7.42231 70.9331 7.37025 70.8845 7.33737C65.2828 3.54563 58.795 0.976186 51.7996 0.00204681C51.743 -0.00582503 51.6845 0.00921415 51.6388 0.0436202C50.7287 0.72947 49.8432 1.44907 48.9851 2.2026C48.8982 2.27895 48.8919 2.41254 48.9705 2.49757C53.9755 7.91504 57.7415 14.3784 60.0252 21.5261V21.5261ZM81.4336 64.6554C81.8829 66.8907 82.1861 69.1692 82.3378 71.4794C82.3505 71.6731 82.5979 71.7473 82.7092 71.5886C84.7231 68.7175 86.4164 65.6036 87.7364 62.2982C87.8061 62.1237 87.6242 61.9543 87.4554 62.0356C85.5454 62.9566 83.579 63.7569 81.5644 64.4294C81.4691 64.4612 81.4138 64.5565 81.4336 64.6554H81.4336ZM89.8072 55.4007C89.8566 55.37 89.8923 55.3199 89.9049 55.2629C90.617 52.0499 90.9949 48.7104 90.9949 45.2818C90.9949 43.784 90.9217 42.3036 90.7815 40.8428C90.7764 40.789 90.751 40.7383 90.7114 40.7017C85.9494 36.2934 80.4652 33.0665 74.6444 31.0361C74.5276 30.9953 74.3997 31.0671 74.3719 31.1882L72.8474 37.8412C72.4681 39.4905 71.8972 41.0784 71.154 42.575C71.1197 42.6442 71.1285 42.7255 71.177 42.7856C75.248 47.8358 78.2904 53.5672 80.1807 59.7191C80.2148 59.83 80.3327 59.8915 80.4419 59.854C83.6892 58.7415 86.8321 57.2538 89.8072 55.4007L89.8072 55.4007ZM76.619 11.9348C76.4826 11.8062 76.2596 11.9144 76.2732 12.1019C76.4056 13.9202 76.443 15.7561 76.3824 17.604C76.2872 20.5037 75.9537 23.3584 75.3935 26.1461C75.3736 26.2453 75.4292 26.3412 75.5248 26.3731C80.3442 27.9818 84.8914 30.3144 89.0369 33.3087C89.194 33.4222 89.4078 33.2747 89.3563 33.0873C87.101 24.879 82.6255 17.5972 76.619 11.9348L76.619 11.9348Z" fill="white"/>
<path d="M69.7622 29.1126L62.6503 26.9232C61.0396 26.4288 59.4044 26.1919 57.796 26.1919C53.0757 26.1919 48.5821 28.2309 45.5845 31.7815C45.5628 31.8072 43.8756 33.9819 43.0776 35.9729C42.9293 36.3427 42.3866 36.2543 42.3609 35.8565C42.212 33.5508 42.3962 31.8209 43.1787 29.8052C43.2087 29.7279 43.186 29.6386 43.1209 29.5876C40.3336 27.4075 36.834 26.1921 33.197 26.1919C31.5882 26.1918 29.9538 26.4286 28.3427 26.9232L21.2308 29.1126C21.0643 29.1639 20.9655 29.3357 21.0046 29.5063L22.6737 36.7899C23.9749 42.448 28.0322 46.834 33.1028 48.6048C34.0423 48.9329 35.0448 49.0694 36.0319 48.9464C36.9225 48.8355 37.6628 48.5441 38.9533 48.106C39.328 47.9788 39.615 48.4506 39.332 48.7282C37.6945 50.3349 36.2728 51.3184 34.2557 52.0324C34.1787 52.0597 34.1262 52.1339 34.1291 52.2159C34.2858 56.6324 36.3586 61.0718 39.8275 64.3235L45.2703 69.4178C45.334 69.4775 45.4153 69.5073 45.4965 69.5073C45.5777 69.5073 45.659 69.4775 45.7227 69.4178L51.1655 64.3235C55.1277 60.6093 57.2698 55.3457 56.8141 50.3365C56.7218 49.3219 56.4239 48.3294 55.8893 47.4636C55.4155 46.6961 54.8416 46.1428 53.9037 45.1478C53.6317 44.8592 53.9378 44.3997 54.3073 44.5415C56.4585 45.3671 57.9481 46.2572 59.4481 47.8161C59.5045 47.8747 59.593 47.8919 59.6659 47.8559C63.8929 45.7625 67.1741 41.7699 68.3194 36.7899L69.9884 29.5063C70.0275 29.3357 69.9287 29.1639 69.7622 29.1126L69.7622 29.1126Z" fill="white"/>
</g>
<defs>
<clipPath id="clip0_50_2187">
<rect width="268" height="91" fill="white"/>
</clipPath>
</defs>
</svg>
