<svg width="32" height="24" viewBox="0 0 32 24" fill="none" xmlns="http://www.w3.org/2000/svg">
<path d="M0.988281 2.46663C0.988281 1.42742 1.83073 0.584961 2.86995 0.584961H29.2134C30.2526 0.584961 31.0951 1.42742 31.0951 2.46663C31.0951 3.50585 30.2526 4.34831 29.2134 4.34831H2.86995C1.83074 4.34831 0.988281 3.50585 0.988281 2.46663ZM0.988281 11.875C0.988281 10.8358 1.83073 9.99333 2.86995 9.99333H29.2134C30.2526 9.99333 31.0951 10.8358 31.0951 11.875C31.0951 12.9142 30.2526 13.7567 29.2134 13.7567H2.86995C1.83074 13.7567 0.988281 12.9142 0.988281 11.875ZM0.988281 21.2834C0.988281 20.2441 1.83073 19.4017 2.86995 19.4017H29.2134C30.2526 19.4017 31.0951 20.2441 31.0951 21.2834C31.0951 22.3226 30.2526 23.165 29.2134 23.165H2.86995C1.83074 23.165 0.988281 22.3226 0.988281 21.2834Z" fill="#4D4C4C"/>
</svg>
